<svg xmlns="http://www.w3.org/2000/svg" xmlns:xlink="http://www.w3.org/1999/xlink" width="500" zoomAndPan="magnify" viewBox="0 0 375 374.999991" height="500" preserveAspectRatio="xMidYMid meet" version="1.0"><defs><g/><clipPath id="2b3fc237d6"><path d="M 154 104 L 231.65625 104 L 231.65625 141 L 154 141 Z M 154 104 " clip-rule="nonzero"/></clipPath><clipPath id="0c282ada9f"><path d="M 143.15625 107 L 157 107 L 157 145 L 143.15625 145 Z M 143.15625 107 " clip-rule="nonzero"/></clipPath><clipPath id="ebafa81eab"><path d="M 143.15625 164 L 221 164 L 221 201 L 143.15625 201 Z M 143.15625 164 " clip-rule="nonzero"/></clipPath><clipPath id="d29e668a0c"><path d="M 218 160 L 231.65625 160 L 231.65625 198 L 218 198 Z M 218 160 " clip-rule="nonzero"/></clipPath></defs><path fill="#917fb3" d="M 206.96875 123.972656 L 221.835938 138.929688 L 216.507812 143.578125 L 214.15625 142.960938 L 210.753906 144.578125 L 206.207031 143.308594 L 199.519531 136.316406 L 194.855469 131.285156 L 201.734375 131.113281 L 203.761719 130.246094 L 205.515625 128.945312 L 206.738281 126.292969 L 206.96875 123.972656 " fill-opacity="1" fill-rule="nonzero"/><path fill="#fbfcfc" d="M 155.488281 108.125 L 155.488281 143.441406 L 144.578125 143.441406 L 144.578125 108.125 L 155.488281 108.125 " fill-opacity="1" fill-rule="nonzero"/><path fill="#fbfcfc" d="M 155.488281 114.347656 L 155.488281 136.757812 L 160.6875 138.085938 L 165.042969 138.3125 L 170.375 137.894531 L 174.273438 136.242188 L 177.253906 133.878906 L 180.007812 131.113281 L 202.707031 131.113281 L 204.472656 130.035156 L 206.550781 125.410156 L 206.96875 123.972656 L 222.601562 139.386719 L 224.953125 139.121094 L 229.996094 134.570312 L 230.339844 132.664062 L 228.964844 130.246094 L 211.363281 112.734375 L 203.972656 108.355469 L 197.492188 106.339844 L 190.613281 105.707031 L 181.167969 107.953125 L 174.21875 111.351562 L 166.074219 114.003906 L 161.433594 115.039062 L 158.164062 114.980469 L 155.488281 114.347656 " fill-opacity="1" fill-rule="nonzero"/><path fill="#232937" d="M 155.488281 126.941406 C 156.039062 126.941406 156.488281 126.488281 156.488281 125.933594 C 156.488281 125.378906 156.039062 124.925781 155.488281 124.925781 C 154.933594 124.925781 154.484375 125.378906 154.484375 125.933594 C 154.484375 126.488281 154.933594 126.941406 155.488281 126.941406 " fill-opacity="1" fill-rule="nonzero"/><path fill="#232937" d="M 190.953125 119.328125 C 191.507812 119.328125 191.957031 118.875 191.957031 118.320312 C 191.957031 117.765625 191.507812 117.3125 190.953125 117.3125 C 190.402344 117.3125 189.949219 117.765625 189.949219 118.320312 C 189.949219 118.875 190.402344 119.328125 190.953125 119.328125 " fill-opacity="1" fill-rule="nonzero"/><path fill="#232937" d="M 208.558594 137.785156 C 209.113281 137.785156 209.5625 137.332031 209.5625 136.777344 C 209.5625 136.21875 209.113281 135.769531 208.558594 135.769531 C 208.003906 135.769531 207.558594 136.21875 207.558594 136.777344 C 207.558594 137.332031 208.003906 137.785156 208.558594 137.785156 " fill-opacity="1" fill-rule="nonzero"/><path fill="#232937" d="M 216.324219 144.578125 C 215.386719 144.578125 214.449219 144.222656 213.734375 143.503906 L 210.328125 140.078125 C 209.9375 139.6875 209.9375 139.058594 210.328125 138.671875 C 210.714844 138.28125 211.339844 138.28125 211.730469 138.671875 L 215.140625 142.09375 C 215.792969 142.75 216.855469 142.753906 217.511719 142.09375 L 221.285156 138.3125 C 221.675781 137.921875 222.304688 137.921875 222.691406 138.3125 C 223.078125 138.699219 223.078125 139.335938 222.6875 139.722656 L 218.914062 143.503906 C 218.199219 144.222656 217.261719 144.578125 216.324219 144.578125 " fill-opacity="1" fill-rule="nonzero"/><g clip-path="url(#2b3fc237d6)"><path fill="#232937" d="M 223.933594 140.472656 C 222.761719 140.472656 221.589844 140.023438 220.699219 139.128906 L 206.0625 124.417969 C 205.671875 124.027344 205.671875 123.398438 206.0625 123.007812 C 206.449219 122.617188 207.074219 122.617188 207.464844 123.007812 L 222.101562 137.71875 C 223.113281 138.730469 224.757812 138.730469 225.773438 137.714844 L 228.464844 135.011719 C 229.46875 133.992188 229.472656 132.335938 228.464844 131.324219 L 212.675781 115.460938 C 204.441406 107.183594 192.15625 104.703125 181.382812 109.132812 L 180.382812 109.542969 C 179.6875 109.894531 161.746094 118.851562 155.035156 115.40625 C 154.546875 115.15625 154.355469 114.554688 154.601562 114.066406 C 154.851562 113.574219 155.453125 113.378906 155.9375 113.632812 C 160.769531 116.113281 174.628906 110.210938 179.5625 107.730469 L 180.628906 107.289062 C 192.148438 102.550781 205.277344 105.203125 214.078125 114.046875 L 229.867188 129.914062 C 231.648438 131.703125 231.652344 134.621094 229.871094 136.417969 L 227.175781 139.128906 C 226.28125 140.023438 225.105469 140.472656 223.933594 140.472656 " fill-opacity="1" fill-rule="nonzero"/></g><path fill="#232937" d="M 165.199219 139.386719 C 159.695312 139.386719 155.203125 137.597656 155.117188 137.5625 C 154.609375 137.355469 154.367188 136.773438 154.570312 136.265625 C 154.78125 135.753906 155.359375 135.507812 155.867188 135.714844 C 156.015625 135.777344 170.78125 141.625 178.527344 131.152344 C 178.960938 130.582031 179.617188 130.246094 180.292969 130.246094 L 201.355469 130.246094 C 201.71875 130.246094 202.074219 130.191406 202.4375 130.078125 C 204.449219 129.472656 205.855469 127.292969 205.855469 124.777344 C 205.855469 124.449219 205.832031 124.152344 205.785156 123.890625 C 205.625 122.726562 205.167969 121.664062 204.484375 120.863281 C 203.628906 119.871094 202.515625 119.316406 201.355469 119.316406 L 194.515625 119.316406 C 193.964844 119.316406 193.523438 118.871094 193.523438 118.320312 C 193.523438 117.769531 193.964844 117.320312 194.515625 117.320312 L 201.355469 117.320312 C 203.101562 117.320312 204.75 118.117188 205.992188 119.566406 C 206.921875 120.660156 207.542969 122.082031 207.746094 123.582031 C 207.804688 123.917969 207.839844 124.335938 207.839844 124.777344 C 207.839844 128.164062 205.855469 131.128906 203.011719 131.988281 C 202.464844 132.160156 201.921875 132.238281 201.355469 132.238281 L 180.292969 132.238281 C 180.238281 132.238281 180.164062 132.285156 180.113281 132.355469 C 175.996094 137.917969 170.183594 139.386719 165.199219 139.386719 " fill-opacity="1" fill-rule="nonzero"/><path fill="#232937" d="M 187.390625 119.316406 L 177.203125 119.316406 C 176.65625 119.316406 176.210938 118.871094 176.210938 118.320312 C 176.210938 117.769531 176.65625 117.320312 177.203125 117.320312 L 187.390625 117.320312 C 187.9375 117.320312 188.382812 117.769531 188.382812 118.320312 C 188.382812 118.871094 187.9375 119.316406 187.390625 119.316406 " fill-opacity="1" fill-rule="nonzero"/><path fill="#232937" d="M 205.976562 135.296875 C 205.722656 135.296875 205.46875 135.199219 205.277344 135.003906 L 202.023438 131.738281 C 201.640625 131.347656 201.640625 130.714844 202.023438 130.328125 C 202.414062 129.9375 203.042969 129.9375 203.429688 130.328125 L 206.679688 133.59375 C 207.066406 133.980469 207.066406 134.613281 206.679688 135.003906 C 206.484375 135.199219 206.230469 135.296875 205.976562 135.296875 " fill-opacity="1" fill-rule="nonzero"/><path fill="#232937" d="M 210.226562 145.542969 C 208.445312 145.542969 206.667969 144.863281 205.3125 143.503906 L 193.816406 131.949219 C 193.429688 131.558594 193.429688 130.929688 193.816406 130.539062 C 194.203125 130.148438 194.832031 130.148438 195.21875 130.539062 L 206.71875 142.09375 C 208.652344 144.035156 211.796875 144.035156 213.730469 142.09375 C 214.121094 141.703125 214.746094 141.703125 215.132812 142.09375 C 215.523438 142.484375 215.523438 143.117188 215.132812 143.503906 C 213.78125 144.863281 212.003906 145.542969 210.226562 145.542969 " fill-opacity="1" fill-rule="nonzero"/><g clip-path="url(#0c282ada9f)"><path fill="#232937" d="M 154.265625 144.585938 L 145.832031 144.585938 C 144.609375 144.585938 143.609375 143.585938 143.609375 142.351562 L 143.609375 109.515625 C 143.609375 108.28125 144.609375 107.28125 145.832031 107.28125 L 154.265625 107.28125 C 155.488281 107.28125 156.488281 108.28125 156.488281 109.515625 L 156.488281 122.070312 C 156.488281 122.621094 156.042969 123.066406 155.496094 123.066406 C 154.949219 123.066406 154.503906 122.621094 154.503906 122.070312 L 154.503906 109.515625 C 154.503906 109.386719 154.390625 109.273438 154.265625 109.273438 L 145.832031 109.273438 C 145.699219 109.273438 145.597656 109.378906 145.597656 109.515625 L 145.597656 142.351562 C 145.597656 142.488281 145.699219 142.59375 145.832031 142.59375 L 154.265625 142.59375 C 154.390625 142.59375 154.503906 142.480469 154.503906 142.351562 L 154.503906 129.796875 C 154.503906 129.25 154.949219 128.800781 155.496094 128.800781 C 156.042969 128.800781 156.488281 129.25 156.488281 129.796875 L 156.488281 142.351562 C 156.488281 143.585938 155.488281 144.585938 154.265625 144.585938 " fill-opacity="1" fill-rule="nonzero"/></g><path fill="#917fb3" d="M 167.84375 181.238281 L 152.976562 166.277344 L 158.304688 161.632812 L 160.660156 162.246094 L 164.058594 160.625 L 168.609375 161.898438 L 175.296875 168.890625 L 179.957031 173.921875 L 173.078125 174.09375 L 171.054688 174.960938 L 169.296875 176.265625 L 168.070312 178.914062 L 167.84375 181.238281 " fill-opacity="1" fill-rule="nonzero"/><path fill="#fbfcfc" d="M 219.328125 197.082031 L 219.328125 161.765625 L 230.238281 161.765625 L 230.238281 197.082031 L 219.328125 197.082031 " fill-opacity="1" fill-rule="nonzero"/><path fill="#fbfcfc" d="M 219.328125 190.859375 L 219.328125 168.449219 L 214.125 167.121094 L 209.769531 166.890625 L 204.4375 167.3125 L 200.539062 168.964844 L 197.558594 171.328125 L 194.808594 174.09375 L 172.105469 174.09375 L 170.335938 175.171875 L 168.261719 179.796875 L 167.84375 181.238281 L 152.210938 165.824219 L 149.863281 166.085938 L 144.816406 170.636719 L 144.472656 172.542969 L 145.847656 174.960938 L 163.449219 192.472656 L 170.84375 196.851562 L 177.320312 198.867188 L 184.203125 199.5 L 193.644531 197.253906 L 200.597656 193.855469 L 208.738281 191.207031 L 213.382812 190.167969 L 216.648438 190.226562 L 219.328125 190.859375 " fill-opacity="1" fill-rule="nonzero"/><path fill="#232937" d="M 219.328125 178.265625 C 218.773438 178.265625 218.324219 178.71875 218.324219 179.273438 C 218.324219 179.832031 218.773438 180.28125 219.328125 180.28125 C 219.878906 180.28125 220.328125 179.832031 220.328125 179.273438 C 220.328125 178.71875 219.878906 178.265625 219.328125 178.265625 " fill-opacity="1" fill-rule="nonzero"/><path fill="#232937" d="M 183.859375 185.878906 C 183.304688 185.878906 182.855469 186.332031 182.855469 186.886719 C 182.855469 187.445312 183.304688 187.894531 183.859375 187.894531 C 184.414062 187.894531 184.863281 187.445312 184.863281 186.886719 C 184.863281 186.332031 184.414062 185.878906 183.859375 185.878906 " fill-opacity="1" fill-rule="nonzero"/><path fill="#232937" d="M 166.253906 167.425781 C 165.699219 167.425781 165.25 167.875 165.25 168.433594 C 165.25 168.988281 165.699219 169.441406 166.253906 169.441406 C 166.804688 169.441406 167.253906 168.988281 167.253906 168.433594 C 167.253906 167.875 166.804688 167.425781 166.253906 167.425781 " fill-opacity="1" fill-rule="nonzero"/><path fill="#232937" d="M 158.488281 160.625 C 159.425781 160.625 160.367188 160.984375 161.078125 161.703125 L 164.488281 165.128906 C 164.875 165.519531 164.875 166.148438 164.488281 166.539062 C 164.097656 166.929688 163.472656 166.929688 163.085938 166.539062 L 159.675781 163.113281 C 159.023438 162.457031 157.957031 162.457031 157.304688 163.113281 L 153.527344 166.898438 C 153.140625 167.285156 152.507812 167.285156 152.121094 166.894531 C 151.734375 166.503906 151.738281 165.871094 152.125 165.484375 L 155.902344 161.703125 C 156.613281 160.984375 157.550781 160.625 158.488281 160.625 " fill-opacity="1" fill-rule="nonzero"/><g clip-path="url(#ebafa81eab)"><path fill="#232937" d="M 150.882812 164.738281 C 152.054688 164.738281 153.222656 165.1875 154.117188 166.078125 L 168.753906 180.789062 C 169.140625 181.179688 169.140625 181.808594 168.753906 182.199219 C 168.363281 182.589844 167.738281 182.589844 167.347656 182.199219 L 152.710938 167.492188 C 151.703125 166.476562 150.054688 166.480469 149.042969 167.492188 L 146.351562 170.199219 C 145.34375 171.21875 145.339844 172.867188 146.351562 173.882812 L 162.140625 189.75 C 170.371094 198.023438 182.65625 200.507812 193.433594 196.074219 L 194.433594 195.664062 C 195.125 195.3125 213.066406 186.359375 219.777344 189.800781 C 220.265625 190.050781 220.460938 190.652344 220.210938 191.140625 C 219.960938 191.632812 219.363281 191.828125 218.875 191.578125 C 214.042969 189.09375 200.183594 194.996094 195.253906 197.480469 L 194.183594 197.921875 C 182.664062 202.660156 169.539062 200.003906 160.738281 191.160156 L 144.945312 175.292969 C 143.164062 173.503906 143.164062 170.585938 144.945312 168.789062 L 147.640625 166.078125 C 148.53125 165.1875 149.707031 164.738281 150.882812 164.738281 " fill-opacity="1" fill-rule="nonzero"/></g><path fill="#232937" d="M 209.613281 165.824219 C 215.117188 165.824219 219.609375 167.609375 219.699219 167.644531 C 220.203125 167.851562 220.445312 168.433594 220.242188 168.941406 C 220.035156 169.457031 219.453125 169.699219 218.949219 169.496094 C 218.800781 169.433594 204.035156 163.582031 196.285156 174.054688 C 195.851562 174.625 195.195312 174.960938 194.523438 174.960938 L 173.457031 174.960938 C 173.09375 174.960938 172.738281 175.015625 172.375 175.128906 C 170.363281 175.738281 168.960938 177.914062 168.960938 180.433594 C 168.960938 180.757812 168.984375 181.054688 169.027344 181.316406 C 169.191406 182.484375 169.644531 183.542969 170.328125 184.34375 C 171.183594 185.339844 172.296875 185.890625 173.457031 185.890625 L 180.300781 185.890625 C 180.847656 185.890625 181.292969 186.339844 181.292969 186.886719 C 181.292969 187.4375 180.847656 187.886719 180.300781 187.886719 L 173.457031 187.886719 C 171.710938 187.886719 170.0625 187.089844 168.820312 185.644531 C 167.894531 184.550781 167.273438 183.125 167.070312 181.628906 C 167.007812 181.289062 166.972656 180.875 166.972656 180.433594 C 166.972656 177.042969 168.957031 174.078125 171.800781 173.21875 C 172.351562 173.050781 172.894531 172.96875 173.457031 172.96875 L 194.523438 172.96875 C 194.578125 172.96875 194.648438 172.921875 194.699219 172.855469 C 198.816406 167.289062 204.628906 165.824219 209.613281 165.824219 " fill-opacity="1" fill-rule="nonzero"/><path fill="#232937" d="M 187.421875 185.890625 L 197.609375 185.890625 C 198.160156 185.890625 198.601562 186.339844 198.601562 186.886719 C 198.601562 187.4375 198.160156 187.886719 197.609375 187.886719 L 187.421875 187.886719 C 186.875 187.886719 186.429688 187.4375 186.429688 186.886719 C 186.429688 186.339844 186.875 185.890625 187.421875 185.890625 " fill-opacity="1" fill-rule="nonzero"/><path fill="#232937" d="M 168.835938 169.914062 C 169.089844 169.914062 169.347656 170.011719 169.539062 170.203125 L 172.785156 173.46875 C 173.175781 173.859375 173.175781 174.492188 172.785156 174.878906 C 172.402344 175.269531 171.773438 175.269531 171.382812 174.878906 L 168.136719 171.617188 C 167.746094 171.222656 167.746094 170.59375 168.136719 170.203125 C 168.328125 170.011719 168.582031 169.914062 168.835938 169.914062 " fill-opacity="1" fill-rule="nonzero"/><path fill="#232937" d="M 164.589844 159.664062 C 166.367188 159.664062 168.144531 160.34375 169.5 161.703125 L 180.996094 173.257812 C 181.382812 173.648438 181.382812 174.28125 180.996094 174.667969 C 180.609375 175.058594 179.980469 175.058594 179.59375 174.667969 L 168.09375 163.113281 C 166.164062 161.171875 163.015625 161.171875 161.082031 163.113281 C 160.695312 163.503906 160.066406 163.503906 159.679688 163.113281 C 159.289062 162.722656 159.289062 162.09375 159.679688 161.703125 C 161.03125 160.34375 162.808594 159.664062 164.589844 159.664062 " fill-opacity="1" fill-rule="nonzero"/><g clip-path="url(#d29e668a0c)"><path fill="#232937" d="M 220.550781 160.617188 L 228.980469 160.617188 C 230.207031 160.617188 231.203125 161.621094 231.203125 162.855469 L 231.203125 195.695312 C 231.203125 196.925781 230.207031 197.929688 228.980469 197.929688 L 220.550781 197.929688 C 219.324219 197.929688 218.328125 196.925781 218.328125 195.695312 L 218.328125 183.136719 C 218.328125 182.585938 218.769531 182.140625 219.320312 182.140625 C 219.867188 182.140625 220.308594 182.585938 220.308594 183.136719 L 220.308594 195.695312 C 220.308594 195.820312 220.421875 195.933594 220.550781 195.933594 L 228.980469 195.933594 C 229.113281 195.933594 229.21875 195.828125 229.21875 195.695312 L 229.21875 162.855469 C 229.21875 162.71875 229.113281 162.613281 228.980469 162.613281 L 220.550781 162.613281 C 220.421875 162.613281 220.308594 162.726562 220.308594 162.855469 L 220.308594 175.410156 C 220.308594 175.960938 219.867188 176.40625 219.320312 176.40625 C 218.769531 176.40625 218.328125 175.960938 218.328125 175.410156 L 218.328125 162.855469 C 218.328125 161.621094 219.324219 160.617188 220.550781 160.617188 " fill-opacity="1" fill-rule="nonzero"/></g><path fill="#232937" d="M 192.460938 165.273438 C 186.648438 165.273438 181.542969 161.066406 180.320312 155.273438 C 180.132812 154.40625 180.042969 153.503906 180.042969 152.597656 C 180.042969 151.480469 180.183594 150.367188 180.472656 149.289062 C 181.925781 143.78125 186.855469 139.933594 192.460938 139.933594 C 194.855469 139.933594 197.183594 140.628906 199.191406 141.945312 C 199.648438 142.242188 199.777344 142.863281 199.476562 143.324219 C 199.179688 143.785156 198.5625 143.917969 198.105469 143.613281 C 196.421875 142.511719 194.46875 141.929688 192.460938 141.929688 C 187.753906 141.929688 183.613281 145.167969 182.390625 149.800781 C 182.148438 150.714844 182.023438 151.652344 182.023438 152.597656 C 182.023438 153.363281 182.105469 154.121094 182.265625 154.859375 C 183.292969 159.738281 187.578125 163.277344 192.460938 163.277344 C 194.289062 163.277344 196.074219 162.796875 197.625 161.878906 C 198.097656 161.601562 198.707031 161.757812 198.984375 162.234375 C 199.261719 162.710938 199.101562 163.320312 198.628906 163.601562 C 196.773438 164.695312 194.640625 165.273438 192.460938 165.273438 " fill-opacity="1" fill-rule="nonzero"/><path fill="#232937" d="M 196.648438 150.546875 L 176.164062 150.546875 C 175.621094 150.546875 175.171875 150.101562 175.171875 149.550781 C 175.171875 149 175.621094 148.550781 176.164062 148.550781 L 196.648438 148.550781 C 197.195312 148.550781 197.640625 149 197.640625 149.550781 C 197.640625 150.101562 197.195312 150.546875 196.648438 150.546875 " fill-opacity="1" fill-rule="nonzero"/><path fill="#232937" d="M 194.378906 156.066406 L 176.164062 156.066406 C 175.621094 156.066406 175.171875 155.621094 175.171875 155.066406 C 175.171875 154.515625 175.621094 154.070312 176.164062 154.070312 L 194.378906 154.070312 C 194.929688 154.070312 195.375 154.515625 195.375 155.066406 C 195.375 155.621094 194.929688 156.066406 194.378906 156.066406 " fill-opacity="1" fill-rule="nonzero"/><g fill="#072a4f" fill-opacity="1"><g transform="translate(99.582258, 241.940828)"><g><path d="M 6.265625 0.109375 C 6.054688 0.109375 5.898438 0.0351562 5.796875 -0.109375 C 5.691406 -0.265625 5.640625 -0.453125 5.640625 -0.671875 C 5.660156 -1.015625 5.726562 -1.222656 5.84375 -1.296875 C 5.957031 -1.367188 6.179688 -1.40625 6.515625 -1.40625 C 7.191406 -1.40625 7.691406 -1.523438 8.015625 -1.765625 C 8.335938 -2.015625 8.539062 -2.316406 8.625 -2.671875 C 8.707031 -3.035156 8.757812 -3.507812 8.78125 -4.09375 L 8.78125 -20.796875 L 6.375 -20.796875 C 5.582031 -20.765625 4.96875 -20.59375 4.53125 -20.28125 C 4.101562 -19.96875 3.773438 -19.5 3.546875 -18.875 C 3.328125 -18.257812 3.132812 -17.378906 2.96875 -16.234375 C 2.945312 -16.046875 2.804688 -15.894531 2.546875 -15.78125 C 2.296875 -15.664062 2.03125 -15.609375 1.75 -15.609375 C 1.539062 -15.609375 1.347656 -15.671875 1.171875 -15.796875 C 0.992188 -15.929688 0.90625 -16.101562 0.90625 -16.3125 L 1.015625 -21.25 C 1.015625 -21.800781 1.328125 -22.078125 1.953125 -22.078125 L 19.078125 -22.078125 C 19.679688 -22.078125 19.984375 -21.800781 19.984375 -21.25 L 20.125 -16.3125 C 20.125 -16.101562 20.03125 -15.929688 19.84375 -15.796875 C 19.65625 -15.671875 19.457031 -15.609375 19.25 -15.609375 C 18.96875 -15.609375 18.703125 -15.664062 18.453125 -15.78125 C 18.210938 -15.894531 18.082031 -16.046875 18.0625 -16.234375 C 17.875 -17.398438 17.675781 -18.285156 17.46875 -18.890625 C 17.257812 -19.503906 16.929688 -19.96875 16.484375 -20.28125 C 16.035156 -20.59375 15.414062 -20.765625 14.625 -20.796875 L 12.25 -20.796875 L 12.25 -4.09375 C 12.269531 -3.507812 12.320312 -3.035156 12.40625 -2.671875 C 12.488281 -2.316406 12.691406 -2.015625 13.015625 -1.765625 C 13.347656 -1.523438 13.851562 -1.40625 14.53125 -1.40625 L 14.734375 -1.40625 C 14.941406 -1.40625 15.097656 -1.363281 15.203125 -1.28125 C 15.304688 -1.195312 15.375 -0.992188 15.40625 -0.671875 C 15.40625 -0.453125 15.347656 -0.265625 15.234375 -0.109375 C 15.128906 0.0351562 14.972656 0.109375 14.765625 0.109375 C 13.273438 0.0351562 11.898438 0 10.640625 0 C 9.242188 0 7.785156 0.0351562 6.265625 0.109375 Z M 6.265625 0.109375 "/></g></g></g><g fill="#072a4f" fill-opacity="1"><g transform="translate(121.627516, 241.940828)"><g><path d="M 2.09375 0.109375 C 1.90625 0.109375 1.757812 0.0351562 1.65625 -0.109375 C 1.550781 -0.265625 1.5 -0.453125 1.5 -0.671875 C 1.53125 -1.015625 1.601562 -1.222656 1.71875 -1.296875 C 1.832031 -1.367188 2.050781 -1.40625 2.375 -1.40625 C 3.050781 -1.40625 3.550781 -1.523438 3.875 -1.765625 C 4.207031 -2.015625 4.414062 -2.316406 4.5 -2.671875 C 4.582031 -3.035156 4.632812 -3.507812 4.65625 -4.09375 L 4.65625 -17.984375 C 4.632812 -18.566406 4.582031 -19.039062 4.5 -19.40625 C 4.414062 -19.769531 4.207031 -20.070312 3.875 -20.3125 C 3.550781 -20.5625 3.050781 -20.6875 2.375 -20.6875 L 2.171875 -20.6875 C 1.929688 -20.6875 1.765625 -20.726562 1.671875 -20.8125 C 1.585938 -20.894531 1.53125 -21.097656 1.5 -21.421875 C 1.5 -21.628906 1.550781 -21.804688 1.65625 -21.953125 C 1.757812 -22.109375 1.90625 -22.1875 2.09375 -22.1875 C 3.632812 -22.113281 5.023438 -22.078125 6.265625 -22.078125 L 17.25 -22.078125 C 17.863281 -22.078125 18.171875 -21.800781 18.171875 -21.25 L 18.265625 -16.34375 C 18.265625 -16.132812 18.160156 -15.960938 17.953125 -15.828125 C 17.742188 -15.703125 17.535156 -15.640625 17.328125 -15.640625 C 17.046875 -15.640625 16.800781 -15.691406 16.59375 -15.796875 C 16.382812 -15.898438 16.265625 -16.0625 16.234375 -16.28125 C 16.046875 -17.414062 15.84375 -18.28125 15.625 -18.875 C 15.40625 -19.476562 15.078125 -19.925781 14.640625 -20.21875 C 14.210938 -20.507812 13.601562 -20.664062 12.8125 -20.6875 L 8.125 -20.6875 L 8.125 -11.796875 L 14.453125 -11.796875 C 14.617188 -11.773438 14.75 -11.6875 14.84375 -11.53125 C 14.9375 -11.382812 14.984375 -11.203125 14.984375 -10.984375 C 14.984375 -10.796875 14.9375 -10.632812 14.84375 -10.5 C 14.75 -10.363281 14.617188 -10.296875 14.453125 -10.296875 L 8.125 -10.296875 L 8.125 -3.671875 C 8.164062 -3.179688 8.222656 -2.789062 8.296875 -2.5 C 8.367188 -2.207031 8.578125 -1.941406 8.921875 -1.703125 C 9.273438 -1.472656 9.820312 -1.375 10.5625 -1.40625 L 13.796875 -1.40625 C 14.609375 -1.425781 15.222656 -1.554688 15.640625 -1.796875 C 16.066406 -2.046875 16.398438 -2.425781 16.640625 -2.9375 C 16.890625 -3.445312 17.1875 -4.285156 17.53125 -5.453125 C 17.695312 -5.878906 18.09375 -6.046875 18.71875 -5.953125 C 18.957031 -5.898438 19.160156 -5.800781 19.328125 -5.65625 C 19.503906 -5.519531 19.582031 -5.347656 19.5625 -5.140625 L 18.859375 -0.734375 C 18.796875 -0.429688 18.691406 -0.234375 18.546875 -0.140625 C 18.410156 -0.046875 18.175781 0 17.84375 0 L 6.296875 0 C 5.035156 0 3.632812 0.0351562 2.09375 0.109375 Z M 2.09375 0.109375 "/></g></g></g><g fill="#072a4f" fill-opacity="1"><g transform="translate(143.46282, 241.940828)"><g><path d="M 2.140625 0.109375 C 1.921875 0.109375 1.757812 0.0351562 1.65625 -0.109375 C 1.550781 -0.265625 1.5 -0.453125 1.5 -0.671875 C 1.53125 -1.015625 1.601562 -1.222656 1.71875 -1.296875 C 1.832031 -1.367188 2.050781 -1.40625 2.375 -1.40625 C 3.050781 -1.40625 3.550781 -1.523438 3.875 -1.765625 C 4.207031 -2.015625 4.414062 -2.316406 4.5 -2.671875 C 4.582031 -3.035156 4.632812 -3.507812 4.65625 -4.09375 L 4.65625 -17.953125 C 4.632812 -18.554688 4.582031 -19.035156 4.5 -19.390625 C 4.414062 -19.742188 4.207031 -20.046875 3.875 -20.296875 C 3.550781 -20.554688 3.050781 -20.6875 2.375 -20.6875 L 2.171875 -20.6875 C 1.929688 -20.6875 1.765625 -20.726562 1.671875 -20.8125 C 1.585938 -20.894531 1.53125 -21.097656 1.5 -21.421875 C 1.5 -21.628906 1.550781 -21.804688 1.65625 -21.953125 C 1.757812 -22.109375 1.921875 -22.1875 2.140625 -22.1875 C 3.648438 -22.113281 5.035156 -22.078125 6.296875 -22.078125 L 12.3125 -22.078125 C 14.113281 -22.054688 15.613281 -21.769531 16.8125 -21.21875 C 18.019531 -20.675781 18.898438 -19.976562 19.453125 -19.125 C 20.015625 -18.269531 20.296875 -17.351562 20.296875 -16.375 C 20.296875 -15.09375 19.785156 -13.914062 18.765625 -12.84375 C 17.753906 -11.769531 16.375 -11 14.625 -10.53125 L 15.21875 -9.59375 C 16.195312 -8 17.082031 -6.632812 17.875 -5.5 C 18.675781 -4.375 19.539062 -3.320312 20.46875 -2.34375 C 21.125 -1.8125 21.828125 -1.5 22.578125 -1.40625 C 22.617188 -1.40625 22.722656 -1.394531 22.890625 -1.375 C 23.054688 -1.363281 23.191406 -1.300781 23.296875 -1.1875 C 23.398438 -1.070312 23.453125 -0.898438 23.453125 -0.671875 C 23.453125 -0.453125 23.398438 -0.265625 23.296875 -0.109375 C 23.191406 0.0351562 23.03125 0.109375 22.8125 0.109375 L 21.90625 0.0625 C 20.882812 0.0195312 20.140625 0 19.671875 0 C 18.734375 -0.1875 17.929688 -0.519531 17.265625 -1 C 16.609375 -1.476562 15.953125 -2.160156 15.296875 -3.046875 C 14.617188 -3.929688 13.671875 -5.378906 12.453125 -7.390625 L 11.828125 -8.40625 C 11.484375 -8.9375 11.144531 -9.300781 10.8125 -9.5 C 10.488281 -9.695312 9.929688 -9.796875 9.140625 -9.796875 L 8.125 -9.796875 L 8.125 -4.09375 C 8.144531 -3.507812 8.195312 -3.035156 8.28125 -2.671875 C 8.363281 -2.316406 8.566406 -2.015625 8.890625 -1.765625 C 9.210938 -1.523438 9.710938 -1.40625 10.390625 -1.40625 L 10.609375 -1.40625 C 10.816406 -1.40625 10.972656 -1.363281 11.078125 -1.28125 C 11.179688 -1.195312 11.242188 -0.992188 11.265625 -0.671875 C 11.265625 -0.453125 11.210938 -0.265625 11.109375 -0.109375 C 11.003906 0.0351562 10.847656 0.109375 10.640625 0.109375 C 9.148438 0.0351562 7.691406 0 6.265625 0 C 5.023438 0 3.648438 0.0351562 2.140625 0.109375 Z M 11.203125 -11.171875 C 14.679688 -11.171875 16.421875 -12.800781 16.421875 -16.0625 C 16.421875 -17.394531 15.960938 -18.515625 15.046875 -19.421875 C 14.140625 -20.335938 12.644531 -20.796875 10.5625 -20.796875 C 9.894531 -20.796875 9.382812 -20.710938 9.03125 -20.546875 C 8.675781 -20.378906 8.4375 -20.097656 8.3125 -19.703125 C 8.1875 -19.304688 8.125 -18.703125 8.125 -17.890625 L 8.125 -11.171875 Z M 11.203125 -11.171875 "/></g></g></g><g fill="#072a4f" fill-opacity="1"><g transform="translate(167.992506, 241.940828)"><g><path d="M 2.140625 0.109375 C 1.921875 0.109375 1.757812 0.0351562 1.65625 -0.109375 C 1.550781 -0.265625 1.5 -0.453125 1.5 -0.671875 C 1.53125 -1.015625 1.601562 -1.222656 1.71875 -1.296875 C 1.832031 -1.367188 2.050781 -1.40625 2.375 -1.40625 C 3.050781 -1.40625 3.550781 -1.523438 3.875 -1.765625 C 4.207031 -2.015625 4.414062 -2.316406 4.5 -2.671875 C 4.582031 -3.035156 4.632812 -3.507812 4.65625 -4.09375 L 4.65625 -17.953125 C 4.632812 -18.554688 4.582031 -19.035156 4.5 -19.390625 C 4.414062 -19.742188 4.207031 -20.046875 3.875 -20.296875 C 3.550781 -20.554688 3.050781 -20.6875 2.375 -20.6875 L 2.171875 -20.6875 C 1.929688 -20.6875 1.765625 -20.726562 1.671875 -20.8125 C 1.585938 -20.894531 1.53125 -21.097656 1.5 -21.421875 C 1.5 -21.628906 1.550781 -21.804688 1.65625 -21.953125 C 1.757812 -22.109375 1.921875 -22.1875 2.140625 -22.1875 C 3.648438 -22.113281 5.035156 -22.078125 6.296875 -22.078125 L 12.3125 -22.078125 C 14.113281 -22.054688 15.613281 -21.769531 16.8125 -21.21875 C 18.019531 -20.675781 18.898438 -19.976562 19.453125 -19.125 C 20.015625 -18.269531 20.296875 -17.351562 20.296875 -16.375 C 20.296875 -15.09375 19.785156 -13.914062 18.765625 -12.84375 C 17.753906 -11.769531 16.375 -11 14.625 -10.53125 L 15.21875 -9.59375 C 16.195312 -8 17.082031 -6.632812 17.875 -5.5 C 18.675781 -4.375 19.539062 -3.320312 20.46875 -2.34375 C 21.125 -1.8125 21.828125 -1.5 22.578125 -1.40625 C 22.617188 -1.40625 22.722656 -1.394531 22.890625 -1.375 C 23.054688 -1.363281 23.191406 -1.300781 23.296875 -1.1875 C 23.398438 -1.070312 23.453125 -0.898438 23.453125 -0.671875 C 23.453125 -0.453125 23.398438 -0.265625 23.296875 -0.109375 C 23.191406 0.0351562 23.03125 0.109375 22.8125 0.109375 L 21.90625 0.0625 C 20.882812 0.0195312 20.140625 0 19.671875 0 C 18.734375 -0.1875 17.929688 -0.519531 17.265625 -1 C 16.609375 -1.476562 15.953125 -2.160156 15.296875 -3.046875 C 14.617188 -3.929688 13.671875 -5.378906 12.453125 -7.390625 L 11.828125 -8.40625 C 11.484375 -8.9375 11.144531 -9.300781 10.8125 -9.5 C 10.488281 -9.695312 9.929688 -9.796875 9.140625 -9.796875 L 8.125 -9.796875 L 8.125 -4.09375 C 8.144531 -3.507812 8.195312 -3.035156 8.28125 -2.671875 C 8.363281 -2.316406 8.566406 -2.015625 8.890625 -1.765625 C 9.210938 -1.523438 9.710938 -1.40625 10.390625 -1.40625 L 10.609375 -1.40625 C 10.816406 -1.40625 10.972656 -1.363281 11.078125 -1.28125 C 11.179688 -1.195312 11.242188 -0.992188 11.265625 -0.671875 C 11.265625 -0.453125 11.210938 -0.265625 11.109375 -0.109375 C 11.003906 0.0351562 10.847656 0.109375 10.640625 0.109375 C 9.148438 0.0351562 7.691406 0 6.265625 0 C 5.023438 0 3.648438 0.0351562 2.140625 0.109375 Z M 11.203125 -11.171875 C 14.679688 -11.171875 16.421875 -12.800781 16.421875 -16.0625 C 16.421875 -17.394531 15.960938 -18.515625 15.046875 -19.421875 C 14.140625 -20.335938 12.644531 -20.796875 10.5625 -20.796875 C 9.894531 -20.796875 9.382812 -20.710938 9.03125 -20.546875 C 8.675781 -20.378906 8.4375 -20.097656 8.3125 -19.703125 C 8.1875 -19.304688 8.125 -18.703125 8.125 -17.890625 L 8.125 -11.171875 Z M 11.203125 -11.171875 "/></g></g></g><g fill="#072a4f" fill-opacity="1"><g transform="translate(192.522194, 241.940828)"><g><path d="M 0.203125 0.109375 C -0.00390625 0.109375 -0.160156 0.0351562 -0.265625 -0.109375 C -0.367188 -0.265625 -0.421875 -0.453125 -0.421875 -0.671875 C -0.398438 -1.015625 -0.328125 -1.222656 -0.203125 -1.296875 C -0.0859375 -1.367188 0.046875 -1.40625 0.203125 -1.40625 C 0.367188 -1.40625 0.476562 -1.40625 0.53125 -1.40625 C 1.226562 -1.40625 1.738281 -1.582031 2.0625 -1.9375 C 2.394531 -2.300781 2.660156 -2.707031 2.859375 -3.15625 C 3.054688 -3.613281 3.1875 -3.925781 3.25 -4.09375 L 9.375 -18.578125 C 9.519531 -18.929688 9.59375 -19.210938 9.59375 -19.421875 C 9.59375 -19.847656 9.425781 -20.148438 9.09375 -20.328125 C 8.769531 -20.515625 8.316406 -20.671875 7.734375 -20.796875 C 7.335938 -20.859375 7.09375 -20.925781 7 -21 C 6.90625 -21.070312 6.859375 -21.269531 6.859375 -21.59375 C 6.859375 -21.875 6.929688 -22.0625 7.078125 -22.15625 C 7.234375 -22.25 7.476562 -22.296875 7.8125 -22.296875 C 8.976562 -22.296875 9.90625 -22.207031 10.59375 -22.03125 C 11.28125 -21.851562 11.878906 -21.5 12.390625 -20.96875 C 12.898438 -20.445312 13.378906 -19.648438 13.828125 -18.578125 L 19.703125 -4.09375 C 20.054688 -3.207031 20.394531 -2.539062 20.71875 -2.09375 C 21.039062 -1.65625 21.53125 -1.425781 22.1875 -1.40625 L 22.40625 -1.40625 C 22.632812 -1.40625 22.796875 -1.363281 22.890625 -1.28125 C 22.984375 -1.195312 23.039062 -0.992188 23.0625 -0.671875 C 23.0625 -0.453125 23.007812 -0.265625 22.90625 -0.109375 C 22.800781 0.0351562 22.644531 0.109375 22.4375 0.109375 C 20.9375 0.0351562 19.648438 0 18.578125 0 C 17.179688 0 15.738281 0.0351562 14.25 0.109375 C 14.039062 0.109375 13.878906 0.0351562 13.765625 -0.109375 C 13.660156 -0.265625 13.609375 -0.453125 13.609375 -0.671875 C 13.640625 -0.992188 13.703125 -1.195312 13.796875 -1.28125 C 13.890625 -1.363281 14.050781 -1.40625 14.28125 -1.40625 C 15.070312 -1.40625 15.628906 -1.476562 15.953125 -1.625 C 16.285156 -1.78125 16.453125 -2.054688 16.453125 -2.453125 C 16.453125 -2.753906 16.3125 -3.300781 16.03125 -4.09375 L 14.84375 -7 L 6.1875 -7 C 5.601562 -5.550781 5.269531 -4.707031 5.1875 -4.46875 C 5.113281 -4.238281 5.078125 -4.113281 5.078125 -4.09375 C 4.796875 -3.207031 4.65625 -2.632812 4.65625 -2.375 C 4.65625 -1.976562 4.828125 -1.71875 5.171875 -1.59375 C 5.523438 -1.46875 6.191406 -1.40625 7.171875 -1.40625 L 7.390625 -1.40625 C 7.617188 -1.40625 7.78125 -1.363281 7.875 -1.28125 C 7.96875 -1.195312 8.023438 -0.992188 8.046875 -0.671875 C 8.046875 -0.453125 7.992188 -0.265625 7.890625 -0.109375 C 7.785156 0.0351562 7.628906 0.109375 7.421875 0.109375 C 5.929688 0.0351562 4.660156 0 3.609375 0 C 2.859375 0 1.722656 0.0351562 0.203125 0.109375 Z M 6.859375 -8.5 L 14.203125 -8.5 L 10.671875 -17.5 L 10.5625 -17.5 Z M 6.859375 -8.5 "/></g></g></g><g fill="#072a4f" fill-opacity="1"><g transform="translate(216.422033, 241.940828)"><g><path d="M 2.09375 0.109375 C 1.90625 0.109375 1.757812 0.0351562 1.65625 -0.109375 C 1.550781 -0.265625 1.5 -0.453125 1.5 -0.671875 C 1.53125 -1.015625 1.601562 -1.222656 1.71875 -1.296875 C 1.832031 -1.367188 2.050781 -1.40625 2.375 -1.40625 C 3.050781 -1.40625 3.550781 -1.523438 3.875 -1.765625 C 4.207031 -2.015625 4.414062 -2.316406 4.5 -2.671875 C 4.582031 -3.035156 4.632812 -3.507812 4.65625 -4.09375 L 4.65625 -17.984375 C 4.632812 -18.566406 4.582031 -19.039062 4.5 -19.40625 C 4.414062 -19.769531 4.207031 -20.070312 3.875 -20.3125 C 3.550781 -20.5625 3.050781 -20.6875 2.375 -20.6875 L 2.171875 -20.6875 C 1.929688 -20.6875 1.765625 -20.726562 1.671875 -20.8125 C 1.585938 -20.894531 1.53125 -21.097656 1.5 -21.421875 C 1.5 -21.628906 1.550781 -21.804688 1.65625 -21.953125 C 1.757812 -22.109375 1.90625 -22.1875 2.09375 -22.1875 C 3.613281 -22.113281 5.003906 -22.078125 6.265625 -22.078125 L 16.375 -22.078125 C 16.988281 -22.078125 17.296875 -21.800781 17.296875 -21.25 L 17.390625 -16.34375 C 17.390625 -16.132812 17.285156 -15.960938 17.078125 -15.828125 C 16.867188 -15.703125 16.660156 -15.640625 16.453125 -15.640625 C 16.171875 -15.640625 15.914062 -15.691406 15.6875 -15.796875 C 15.46875 -15.898438 15.347656 -16.0625 15.328125 -16.28125 C 15.160156 -17.414062 14.96875 -18.28125 14.75 -18.875 C 14.53125 -19.476562 14.203125 -19.925781 13.765625 -20.21875 C 13.335938 -20.507812 12.726562 -20.664062 11.9375 -20.6875 L 8.125 -20.6875 L 8.125 -11.578125 L 14.390625 -11.578125 C 14.578125 -11.554688 14.710938 -11.46875 14.796875 -11.3125 C 14.890625 -11.164062 14.9375 -10.988281 14.9375 -10.78125 C 14.9375 -10.59375 14.890625 -10.425781 14.796875 -10.28125 C 14.710938 -10.144531 14.578125 -10.078125 14.390625 -10.078125 L 8.125 -10.078125 L 8.125 -4.09375 C 8.144531 -3.507812 8.195312 -3.035156 8.28125 -2.671875 C 8.363281 -2.316406 8.566406 -2.015625 8.890625 -1.765625 C 9.210938 -1.523438 9.710938 -1.40625 10.390625 -1.40625 L 10.609375 -1.40625 C 10.816406 -1.40625 10.972656 -1.363281 11.078125 -1.28125 C 11.179688 -1.195312 11.242188 -0.992188 11.265625 -0.671875 C 11.265625 -0.453125 11.210938 -0.265625 11.109375 -0.109375 C 11.003906 0.0351562 10.847656 0.109375 10.640625 0.109375 C 9.148438 0.0351562 7.703125 0 6.296875 0 C 5.015625 0 3.613281 0.0351562 2.09375 0.109375 Z M 2.09375 0.109375 "/></g></g></g><g fill="#072a4f" fill-opacity="1"><g transform="translate(235.842885, 241.940828)"><g><path d="M 2.09375 0.109375 C 1.882812 0.109375 1.726562 0.0351562 1.625 -0.109375 C 1.519531 -0.265625 1.46875 -0.453125 1.46875 -0.671875 C 1.488281 -1.015625 1.5625 -1.222656 1.6875 -1.296875 C 1.820312 -1.367188 2.039062 -1.40625 2.34375 -1.40625 C 3.019531 -1.40625 3.519531 -1.523438 3.84375 -1.765625 C 4.175781 -2.015625 4.390625 -2.3125 4.484375 -2.65625 C 4.578125 -3.007812 4.632812 -3.488281 4.65625 -4.09375 L 4.65625 -17.984375 C 4.632812 -18.597656 4.578125 -19.078125 4.484375 -19.421875 C 4.390625 -19.773438 4.175781 -20.070312 3.84375 -20.3125 C 3.519531 -20.5625 3.019531 -20.6875 2.34375 -20.6875 L 2.140625 -20.6875 C 1.921875 -20.6875 1.757812 -20.726562 1.65625 -20.8125 C 1.550781 -20.894531 1.488281 -21.097656 1.46875 -21.421875 C 1.46875 -21.628906 1.519531 -21.804688 1.625 -21.953125 C 1.726562 -22.109375 1.882812 -22.1875 2.09375 -22.1875 C 3.613281 -22.113281 5.003906 -22.078125 6.265625 -22.078125 C 7.660156 -22.078125 9.117188 -22.113281 10.640625 -22.1875 C 10.847656 -22.1875 11.003906 -22.109375 11.109375 -21.953125 C 11.210938 -21.804688 11.265625 -21.628906 11.265625 -21.421875 C 11.242188 -21.066406 11.164062 -20.851562 11.03125 -20.78125 C 10.90625 -20.71875 10.679688 -20.6875 10.359375 -20.6875 C 9.679688 -20.6875 9.175781 -20.5625 8.84375 -20.3125 C 8.519531 -20.070312 8.316406 -19.769531 8.234375 -19.40625 C 8.160156 -19.039062 8.109375 -18.566406 8.078125 -17.984375 L 8.078125 -4.09375 C 8.109375 -3.507812 8.160156 -3.035156 8.234375 -2.671875 C 8.316406 -2.316406 8.519531 -2.015625 8.84375 -1.765625 C 9.175781 -1.523438 9.679688 -1.40625 10.359375 -1.40625 L 10.5625 -1.40625 C 10.800781 -1.40625 10.972656 -1.363281 11.078125 -1.28125 C 11.179688 -1.195312 11.242188 -0.992188 11.265625 -0.671875 C 11.265625 -0.453125 11.210938 -0.265625 11.109375 -0.109375 C 11.003906 0.0351562 10.847656 0.109375 10.640625 0.109375 C 9.148438 0.0351562 7.703125 0 6.296875 0 C 5.015625 0 3.613281 0.0351562 2.09375 0.109375 Z M 2.09375 0.109375 "/></g></g></g><g fill="#072a4f" fill-opacity="1"><g transform="translate(249.630005, 241.940828)"><g><path d="M 2.171875 0.109375 C 1.960938 0.109375 1.804688 0.0351562 1.703125 -0.109375 C 1.597656 -0.265625 1.546875 -0.453125 1.546875 -0.671875 C 1.566406 -1.015625 1.632812 -1.222656 1.75 -1.296875 C 1.863281 -1.367188 2.085938 -1.40625 2.421875 -1.40625 C 3.097656 -1.40625 3.59375 -1.523438 3.90625 -1.765625 C 4.21875 -2.015625 4.40625 -2.304688 4.46875 -2.640625 C 4.539062 -2.984375 4.59375 -3.46875 4.625 -4.09375 L 4.6875 -17.984375 C 4.6875 -18.691406 4.609375 -19.222656 4.453125 -19.578125 C 4.304688 -19.941406 4.066406 -20.203125 3.734375 -20.359375 C 3.410156 -20.523438 2.945312 -20.671875 2.34375 -20.796875 C 1.945312 -20.859375 1.703125 -20.925781 1.609375 -21 C 1.515625 -21.070312 1.46875 -21.269531 1.46875 -21.59375 C 1.46875 -21.875 1.539062 -22.0625 1.6875 -22.15625 C 1.84375 -22.25 2.085938 -22.296875 2.421875 -22.296875 C 3.859375 -22.296875 5 -22.195312 5.84375 -22 C 6.6875 -21.800781 7.425781 -21.441406 8.0625 -20.921875 C 8.707031 -20.410156 9.414062 -19.628906 10.1875 -18.578125 L 19.78125 -5.984375 L 19.875 -5.984375 L 19.8125 -17.984375 C 19.789062 -18.617188 19.742188 -19.101562 19.671875 -19.4375 C 19.597656 -19.78125 19.40625 -20.070312 19.09375 -20.3125 C 18.78125 -20.5625 18.285156 -20.6875 17.609375 -20.6875 L 17.390625 -20.6875 C 17.160156 -20.6875 16.992188 -20.726562 16.890625 -20.8125 C 16.785156 -20.894531 16.71875 -21.097656 16.6875 -21.421875 C 16.6875 -21.628906 16.742188 -21.804688 16.859375 -21.953125 C 16.984375 -22.109375 17.140625 -22.1875 17.328125 -22.1875 C 18.816406 -22.113281 19.9375 -22.078125 20.6875 -22.078125 C 21.125 -22.078125 21.972656 -22.101562 23.234375 -22.15625 L 23.96875 -22.1875 C 24.1875 -22.1875 24.347656 -22.109375 24.453125 -21.953125 C 24.554688 -21.804688 24.609375 -21.628906 24.609375 -21.421875 C 24.578125 -21.066406 24.503906 -20.851562 24.390625 -20.78125 C 24.273438 -20.71875 24.054688 -20.6875 23.734375 -20.6875 C 23.054688 -20.6875 22.554688 -20.5625 22.234375 -20.3125 C 21.921875 -20.070312 21.726562 -19.78125 21.65625 -19.4375 C 21.59375 -19.101562 21.550781 -18.617188 21.53125 -17.984375 L 21.453125 -0.34375 C 21.429688 -0.0390625 21.140625 0.109375 20.578125 0.109375 C 20.140625 0.109375 19.800781 -0.0390625 19.5625 -0.34375 L 6.375 -17.984375 L 6.265625 -17.984375 L 6.328125 -4.09375 C 6.359375 -3.46875 6.40625 -2.984375 6.46875 -2.640625 C 6.539062 -2.304688 6.734375 -2.015625 7.046875 -1.765625 C 7.367188 -1.523438 7.867188 -1.40625 8.546875 -1.40625 L 8.75 -1.40625 C 8.976562 -1.40625 9.144531 -1.363281 9.25 -1.28125 C 9.363281 -1.195312 9.429688 -0.992188 9.453125 -0.671875 C 9.453125 -0.453125 9.398438 -0.265625 9.296875 -0.109375 C 9.191406 0.0351562 9.03125 0.109375 8.8125 0.109375 C 7.320312 0.0351562 6.191406 0 5.421875 0 C 4.953125 0 4.132812 0.0195312 2.96875 0.0625 Z M 2.171875 0.109375 "/></g></g></g></svg>