<svg xmlns="http://www.w3.org/2000/svg" xmlns:xlink="http://www.w3.org/1999/xlink" width="500" zoomAndPan="magnify" viewBox="0 0 375 374.999991" height="500" preserveAspectRatio="xMidYMid meet" version="1.0"><defs><g/><clipPath id="fcc5e61463"><path d="M 63.910156 112.5 L 147.160156 112.5 L 147.160156 262.5 L 63.910156 262.5 Z M 63.910156 112.5 " clip-rule="nonzero"/></clipPath></defs><path fill="#fde2f3" d="M 129.878906 222.742188 C 129.441406 225.496094 128.625 228.128906 127.421875 230.644531 C 127.359375 230.816406 127.28125 230.980469 127.1875 231.136719 L 102.898438 197.394531 L 86.402344 174.46875 C 85.261719 172.894531 84.289062 171.21875 83.480469 169.449219 C 82.671875 167.679688 82.042969 165.847656 81.597656 163.953125 C 81.152344 162.058594 80.894531 160.140625 80.832031 158.195312 C 80.765625 156.25 80.890625 154.316406 81.207031 152.398438 C 81.359375 151.488281 81.554688 150.585938 81.789062 149.699219 C 82.296875 147.75 83 145.875 83.898438 144.074219 L 107.050781 176.222656 C 108.070312 177.882812 109.167969 179.484375 110.351562 181.027344 C 110.796875 181.601562 111.265625 182.199219 111.742188 182.734375 L 124.753906 200.679688 C 125.890625 202.257812 126.859375 203.933594 127.664062 205.703125 C 128.464844 207.472656 129.085938 209.304688 129.527344 211.199219 C 129.96875 213.09375 130.21875 215.011719 130.277344 216.953125 C 130.335938 218.894531 130.203125 220.824219 129.878906 222.742188 Z M 129.878906 222.742188 " fill-opacity="1" fill-rule="nonzero"/><path fill="#917fb3" d="M 127.996094 227.957031 C 127.84375 228.867188 127.65625 229.757812 127.421875 230.644531 C 127.359375 230.816406 127.28125 230.980469 127.1875 231.136719 L 102.898438 197.394531 L 86.402344 174.46875 C 85.261719 172.894531 84.289062 171.21875 83.480469 169.449219 C 82.671875 167.679688 82.042969 165.847656 81.597656 163.953125 C 81.152344 162.058594 80.894531 160.140625 80.832031 158.195312 C 80.765625 156.25 80.890625 154.316406 81.207031 152.398438 C 81.359375 151.488281 81.554688 150.585938 81.789062 149.699219 C 81.855469 149.539062 81.929688 149.382812 82.011719 149.230469 L 105.167969 181.378906 C 106.199219 183.039062 107.308594 184.652344 108.46875 186.160156 C 108.914062 186.757812 109.378906 187.332031 109.859375 187.890625 L 122.8125 205.894531 C 123.953125 207.472656 124.925781 209.144531 125.734375 210.914062 C 126.542969 212.683594 127.167969 214.515625 127.613281 216.40625 C 128.058594 218.300781 128.3125 220.21875 128.378906 222.164062 C 128.441406 224.105469 128.316406 226.039062 127.996094 227.957031 Z M 127.996094 227.957031 " fill-opacity="1" fill-rule="nonzero"/><path fill="#fde2f3" d="M 98.230469 246.207031 C 98.230469 247.1875 98.183594 248.167969 98.089844 249.152344 C 96.917969 248.871094 95.765625 248.523438 94.636719 248.097656 C 93.355469 247.617188 92.117188 247.042969 90.921875 246.378906 C 89.726562 245.710938 88.585938 244.964844 87.503906 244.128906 C 86.417969 243.296875 85.398438 242.386719 84.449219 241.402344 C 83.5 240.421875 82.625 239.371094 81.832031 238.257812 C 81.035156 237.148438 80.324219 235.980469 79.703125 234.765625 C 79.078125 233.546875 78.546875 232.289062 78.109375 230.996094 C 77.671875 229.699219 77.332031 228.378906 77.089844 227.03125 C 76.847656 225.6875 76.707031 224.332031 76.664062 222.964844 C 76.664062 222.695312 76.664062 222.425781 76.664062 222.144531 C 76.664062 221.15625 76.710938 220.171875 76.804688 219.199219 C 78.316406 219.554688 79.789062 220.035156 81.222656 220.640625 C 82.652344 221.242188 84.023438 221.960938 85.335938 222.792969 C 86.648438 223.625 87.878906 224.5625 89.035156 225.601562 C 90.1875 226.640625 91.25 227.765625 92.214844 228.984375 C 93.179688 230.199219 94.035156 231.488281 94.785156 232.847656 C 95.535156 234.207031 96.164062 235.621094 96.675781 237.085938 C 97.1875 238.550781 97.574219 240.050781 97.835938 241.582031 C 98.097656 243.113281 98.226562 244.652344 98.230469 246.207031 Z M 98.230469 246.207031 " fill-opacity="1" fill-rule="nonzero"/><path fill="#917fb3" d="M 94.636719 248.121094 C 93.355469 247.640625 92.117188 247.066406 90.921875 246.398438 C 89.722656 245.734375 88.582031 244.984375 87.496094 244.148438 C 86.414062 243.316406 85.394531 242.40625 84.445312 241.421875 C 83.492188 240.4375 82.621094 239.386719 81.824219 238.273438 C 81.027344 237.160156 80.320312 235.992188 79.695312 234.773438 C 79.074219 233.554688 78.542969 232.296875 78.105469 231 C 77.667969 229.703125 77.328125 228.382812 77.089844 227.035156 C 76.847656 225.6875 76.707031 224.332031 76.664062 222.964844 C 77.945312 223.449219 79.183594 224.023438 80.378906 224.691406 C 81.574219 225.359375 82.714844 226.109375 83.800781 226.945312 C 84.882812 227.777344 85.902344 228.6875 86.851562 229.671875 C 87.800781 230.65625 88.675781 231.707031 89.46875 232.820312 C 90.265625 233.933594 90.972656 235.097656 91.597656 236.316406 C 92.222656 237.535156 92.75 238.792969 93.1875 240.089844 C 93.628906 241.382812 93.96875 242.707031 94.210938 244.050781 C 94.453125 245.398438 94.59375 246.753906 94.636719 248.121094 Z M 94.636719 248.121094 " fill-opacity="1" fill-rule="nonzero"/><path fill="#fde2f3" d="M 134.417969 153.019531 C 134.421875 154.128906 134.359375 155.234375 134.234375 156.339844 C 133.054688 155.953125 131.90625 155.488281 130.792969 154.945312 C 129.65625 154.398438 128.5625 153.773438 127.511719 153.074219 C 126.460938 152.375 125.464844 151.609375 124.519531 150.773438 C 123.574219 149.9375 122.6875 149.042969 121.867188 148.085938 C 121.042969 147.128906 120.289062 146.125 119.601562 145.066406 C 118.914062 144.007812 118.304688 142.90625 117.769531 141.765625 C 117.234375 140.621094 116.777344 139.449219 116.402344 138.246094 C 116.027344 137.042969 115.738281 135.816406 115.527344 134.574219 C 115.320312 133.328125 115.199219 132.078125 115.160156 130.816406 C 115.160156 130.535156 115.160156 130.269531 115.160156 130 C 115.160156 128.875 115.238281 127.757812 115.394531 126.644531 C 116.777344 127.09375 118.113281 127.648438 119.40625 128.3125 C 120.699219 128.972656 121.933594 129.730469 123.109375 130.589844 C 124.28125 131.445312 125.378906 132.386719 126.402344 133.417969 C 127.429688 134.445312 128.367188 135.550781 129.214844 136.730469 C 130.066406 137.90625 130.816406 139.144531 131.46875 140.441406 C 132.125 141.738281 132.671875 143.078125 133.113281 144.460938 C 133.554688 145.84375 133.886719 147.253906 134.105469 148.6875 C 134.324219 150.121094 134.429688 151.566406 134.417969 153.019531 Z M 134.417969 153.019531 " fill-opacity="1" fill-rule="nonzero"/><path fill="#917fb3" d="M 130.792969 154.945312 C 129.65625 154.398438 128.5625 153.773438 127.511719 153.074219 C 126.460938 152.375 125.464844 151.609375 124.519531 150.773438 C 123.574219 149.9375 122.6875 149.042969 121.867188 148.085938 C 121.042969 147.128906 120.289062 146.125 119.601562 145.066406 C 118.914062 144.007812 118.304688 142.90625 117.769531 141.765625 C 117.234375 140.621094 116.777344 139.449219 116.402344 138.246094 C 116.027344 137.042969 115.738281 135.816406 115.527344 134.574219 C 115.320312 133.328125 115.199219 132.078125 115.160156 130.816406 C 116.300781 131.363281 117.394531 131.984375 118.449219 132.679688 C 119.503906 133.375 120.503906 134.140625 121.453125 134.972656 C 122.402344 135.808594 123.289062 136.703125 124.113281 137.65625 C 124.941406 138.613281 125.695312 139.621094 126.382812 140.679688 C 127.066406 141.738281 127.679688 142.839844 128.214844 143.984375 C 128.746094 145.128906 129.203125 146.304688 129.574219 147.507812 C 129.949219 148.714844 130.234375 149.941406 130.441406 151.1875 C 130.644531 152.433594 130.761719 153.683594 130.792969 154.945312 Z M 130.792969 154.945312 " fill-opacity="1" fill-rule="nonzero"/><g clip-path="url(#fcc5e61463)"><path fill="#2a2f4f" d="M 111.695312 121.230469 C 111.546875 121.980469 111.113281 124.867188 111.03125 125.601562 C 110.816406 127.078125 110.710938 128.558594 110.714844 130.046875 C 110.71875 131.75 110.859375 133.441406 111.128906 135.121094 C 111.402344 136.800781 111.804688 138.449219 112.339844 140.066406 C 112.875 141.683594 113.53125 143.246094 114.316406 144.757812 C 115.097656 146.273438 115.996094 147.714844 117.003906 149.082031 C 118.015625 150.453125 119.128906 151.734375 120.34375 152.929688 C 121.558594 154.125 122.859375 155.214844 124.246094 156.203125 C 125.632812 157.191406 127.089844 158.066406 128.617188 158.824219 C 130.140625 159.582031 131.71875 160.214844 133.34375 160.722656 C 134.757812 161.167969 136.195312 161.507812 137.660156 161.738281 C 139.398438 162.03125 141.152344 162.175781 142.914062 162.171875 L 144.390625 162.171875 C 144.976562 162.15625 145.5625 162.109375 146.144531 162.03125 C 146.492188 160.53125 146.746094 159.015625 146.917969 157.484375 C 147.074219 156.089844 147.15625 154.691406 147.167969 153.289062 C 147.179688 151.886719 147.117188 150.488281 146.980469 149.09375 C 146.847656 147.699219 146.640625 146.3125 146.363281 144.9375 C 146.082031 143.5625 145.734375 142.207031 145.3125 140.871094 C 144.894531 139.53125 144.40625 138.21875 143.851562 136.929688 C 143.292969 135.644531 142.671875 134.390625 141.984375 133.167969 C 141.296875 131.941406 140.550781 130.757812 139.738281 129.613281 C 138.929688 128.46875 138.0625 127.367188 137.136719 126.3125 C 136.214844 125.257812 135.238281 124.253906 134.207031 123.300781 C 133.179688 122.347656 132.105469 121.449219 130.980469 120.609375 C 129.859375 119.765625 128.695312 118.984375 127.492188 118.261719 C 126.289062 117.542969 125.050781 116.886719 123.777344 116.292969 C 122.507812 115.699219 121.207031 115.175781 119.882812 114.71875 C 118.554688 114.257812 117.207031 113.871094 115.839844 113.554688 C 114.472656 113.234375 113.09375 112.988281 111.703125 112.816406 C 110.308594 112.640625 108.910156 112.539062 107.507812 112.507812 L 106.664062 112.507812 C 103.617188 112.542969 100.613281 112.933594 97.65625 113.679688 C 92.578125 114.890625 87.914062 117.015625 83.675781 120.0625 C 81.644531 121.519531 79.761719 123.152344 78.035156 124.960938 C 75.484375 127.511719 73.269531 130.328125 71.398438 133.414062 C 68.296875 138.488281 66.273438 143.964844 65.328125 149.839844 C 64.839844 152.800781 64.644531 155.777344 64.746094 158.777344 C 64.84375 161.777344 65.238281 164.738281 65.925781 167.660156 C 66.613281 170.582031 67.578125 173.40625 68.824219 176.136719 C 70.070312 178.867188 71.574219 181.449219 73.332031 183.882812 L 115.933594 243.023438 C 116.164062 243.34375 116.371094 243.679688 116.5625 244.027344 C 116.75 244.371094 116.914062 244.730469 117.058594 245.097656 C 117.199219 245.464844 117.316406 245.839844 117.414062 246.222656 C 117.507812 246.609375 117.578125 246.996094 117.621094 247.386719 C 117.667969 247.777344 117.6875 248.171875 117.683594 248.566406 C 117.675781 248.960938 117.648438 249.351562 117.589844 249.742188 C 117.535156 250.132812 117.457031 250.519531 117.351562 250.902344 C 117.246094 251.28125 117.121094 251.652344 116.96875 252.019531 C 116.816406 252.382812 116.640625 252.734375 116.445312 253.078125 C 116.246094 253.417969 116.03125 253.746094 115.792969 254.0625 C 115.550781 254.375 115.292969 254.671875 115.019531 254.953125 C 114.742188 255.234375 114.449219 255.5 114.136719 255.742188 C 113.828125 255.984375 113.503906 256.210938 113.164062 256.414062 C 112.824219 256.613281 112.476562 256.796875 112.113281 256.953125 C 111.75 257.109375 111.378906 257.246094 111 257.355469 C 110.621094 257.46875 110.238281 257.554688 109.847656 257.617188 C 107.625 257.96875 105.382812 258.105469 103.132812 258.023438 C 101.980469 257.980469 100.832031 257.886719 99.6875 257.734375 C 98.542969 257.582031 97.410156 257.375 96.285156 257.113281 C 95.164062 256.851562 94.054688 256.539062 92.960938 256.171875 C 91.867188 255.804688 90.792969 255.386719 89.738281 254.917969 C 88.683594 254.445312 87.65625 253.925781 86.652344 253.359375 C 85.648438 252.789062 84.675781 252.175781 83.730469 251.515625 C 82.785156 250.851562 81.875 250.148438 80.996094 249.398438 C 80.121094 248.648438 79.28125 247.859375 78.480469 247.03125 C 77.675781 246.203125 76.917969 245.335938 76.199219 244.433594 C 75.480469 243.53125 74.808594 242.597656 74.179688 241.632812 C 73.550781 240.664062 72.96875 239.671875 72.433594 238.648438 C 71.902344 237.625 71.417969 236.582031 70.984375 235.511719 C 70.554688 234.441406 70.171875 233.355469 69.84375 232.25 C 69.515625 231.144531 69.238281 230.027344 69.019531 228.898438 C 68.796875 227.765625 68.628906 226.625 68.515625 225.480469 C 68.40625 224.332031 68.347656 223.179688 68.347656 222.027344 C 68.347656 220.855469 68.402344 219.6875 68.523438 218.519531 C 69.164062 218.519531 69.808594 218.453125 70.464844 218.453125 C 71.121094 218.453125 71.773438 218.453125 72.40625 218.519531 C 72.277344 219.722656 72.21875 220.925781 72.21875 222.132812 C 72.21875 223.035156 72.257812 223.9375 72.335938 224.835938 C 72.414062 225.738281 72.527344 226.632812 72.679688 227.523438 C 72.832031 228.410156 73.019531 229.292969 73.246094 230.167969 C 73.472656 231.042969 73.734375 231.90625 74.035156 232.757812 C 74.332031 233.609375 74.667969 234.449219 75.035156 235.273438 C 75.40625 236.09375 75.808594 236.902344 76.246094 237.691406 C 76.683594 238.484375 77.152344 239.253906 77.65625 240.003906 C 78.15625 240.753906 78.691406 241.484375 79.253906 242.1875 C 79.816406 242.894531 80.410156 243.574219 81.03125 244.230469 C 81.652344 244.886719 82.296875 245.515625 82.972656 246.117188 C 83.644531 246.71875 84.34375 247.292969 85.066406 247.835938 C 85.789062 248.378906 86.53125 248.890625 87.296875 249.371094 C 88.058594 249.851562 88.84375 250.300781 89.648438 250.714844 C 90.449219 251.128906 91.269531 251.507812 92.101562 251.855469 C 92.9375 252.199219 93.785156 252.511719 94.644531 252.785156 C 95.507812 253.058594 96.378906 253.296875 97.257812 253.5 C 98.710938 253.835938 100.183594 254.058594 101.667969 254.179688 C 102.046875 252.738281 102.308594 251.277344 102.453125 249.792969 C 102.601562 248.597656 102.671875 247.398438 102.664062 246.195312 C 102.660156 245.199219 102.613281 244.207031 102.519531 243.21875 C 102.425781 242.230469 102.285156 241.25 102.097656 240.273438 C 101.914062 239.296875 101.683594 238.332031 101.40625 237.378906 C 101.132812 236.421875 100.8125 235.484375 100.453125 234.558594 C 100.089844 233.632812 99.683594 232.726562 99.238281 231.839844 C 98.792969 230.949219 98.308594 230.085938 97.78125 229.242188 C 97.253906 228.398438 96.691406 227.582031 96.089844 226.792969 C 95.484375 226 94.847656 225.242188 94.175781 224.507812 C 93.503906 223.777344 92.800781 223.078125 92.0625 222.414062 C 91.324219 221.746094 90.558594 221.113281 89.761719 220.519531 C 88.964844 219.925781 88.144531 219.367188 87.296875 218.847656 C 86.449219 218.328125 85.582031 217.847656 84.6875 217.410156 C 83.796875 216.96875 82.886719 216.574219 81.957031 216.21875 C 81.027344 215.863281 80.085938 215.550781 79.128906 215.285156 C 78.171875 215.015625 77.203125 214.792969 76.226562 214.617188 C 75.246094 214.4375 74.261719 214.304688 73.273438 214.21875 C 72.371094 214.136719 71.445312 214.101562 70.523438 214.101562 C 69.9375 214.101562 69.351562 214.101562 68.765625 214.101562 C 67.386719 214.175781 66.019531 214.332031 64.660156 214.582031 C 64.425781 215.828125 64.253906 217.082031 64.144531 218.347656 C 64.027344 219.515625 63.96875 220.8125 63.96875 222.039062 C 63.972656 223.339844 64.035156 224.632812 64.160156 225.925781 C 64.289062 227.214844 64.476562 228.5 64.726562 229.773438 C 64.976562 231.046875 65.285156 232.304688 65.65625 233.550781 C 66.027344 234.792969 66.457031 236.015625 66.945312 237.21875 C 67.433594 238.421875 67.980469 239.597656 68.582031 240.75 C 69.183594 241.898438 69.835938 243.019531 70.546875 244.105469 C 71.257812 245.191406 72.015625 246.242188 72.828125 247.257812 C 73.636719 248.273438 74.496094 249.246094 75.398438 250.179688 C 76.304688 251.109375 77.25 251.996094 78.238281 252.835938 C 79.230469 253.679688 80.257812 254.46875 81.320312 255.210938 C 82.386719 255.953125 83.488281 256.644531 84.617188 257.28125 C 85.75 257.917969 86.910156 258.5 88.097656 259.023438 C 89.285156 259.550781 90.496094 260.015625 91.730469 260.425781 C 92.960938 260.835938 94.210938 261.183594 95.480469 261.472656 C 96.746094 261.761719 98.023438 261.988281 99.3125 262.15625 C 100.597656 262.320312 101.890625 262.425781 103.191406 262.46875 C 103.589844 262.46875 103.988281 262.46875 104.359375 262.46875 L 104.464844 262.46875 C 107.460938 262.449219 110.417969 262.101562 113.335938 261.425781 C 116.253906 260.75 119.0625 259.761719 121.761719 258.460938 C 124.460938 257.15625 126.980469 255.574219 129.324219 253.714844 C 131.671875 251.851562 133.78125 249.753906 135.660156 247.421875 C 136.472656 246.457031 137.246094 245.460938 137.976562 244.433594 C 138.707031 243.40625 139.394531 242.347656 140.039062 241.265625 C 140.679688 240.179688 141.277344 239.070312 141.828125 237.9375 C 142.382812 236.800781 142.882812 235.648438 143.339844 234.472656 C 143.796875 233.296875 144.203125 232.101562 144.558594 230.894531 C 144.914062 229.683594 145.21875 228.460938 145.476562 227.226562 C 145.730469 225.992188 145.933594 224.75 146.085938 223.5 C 146.238281 222.246094 146.339844 220.992188 146.386719 219.730469 C 146.4375 218.472656 146.429688 217.210938 146.375 215.953125 C 146.320312 214.691406 146.210938 213.4375 146.050781 212.1875 C 145.890625 210.9375 145.675781 209.695312 145.414062 208.460938 C 145.152344 207.226562 144.835938 206.007812 144.472656 204.800781 C 144.105469 203.59375 143.695312 202.402344 143.230469 201.230469 C 142.765625 200.058594 142.257812 198.90625 141.695312 197.777344 C 141.136719 196.644531 140.535156 195.539062 139.882812 194.460938 C 139.234375 193.378906 138.539062 192.328125 137.800781 191.304688 L 95.09375 132.042969 C 94.867188 131.726562 94.664062 131.394531 94.480469 131.046875 C 94.296875 130.703125 94.136719 130.347656 94 129.984375 C 93.859375 129.617188 93.746094 129.246094 93.652344 128.867188 C 93.5625 128.484375 93.492188 128.101562 93.449219 127.714844 C 93.40625 127.324219 93.386719 126.9375 93.390625 126.546875 C 93.394531 126.15625 93.425781 125.765625 93.480469 125.378906 C 93.535156 124.992188 93.609375 124.609375 93.710938 124.234375 C 93.8125 123.855469 93.9375 123.488281 94.085938 123.125 C 94.234375 122.761719 94.40625 122.414062 94.597656 122.074219 C 94.789062 121.730469 95 121.40625 95.234375 121.089844 C 95.46875 120.777344 95.71875 120.480469 95.988281 120.199219 C 96.261719 119.914062 96.546875 119.652344 96.851562 119.40625 C 97.152344 119.160156 97.472656 118.933594 97.804688 118.726562 C 98.136719 118.519531 98.480469 118.335938 98.832031 118.171875 C 99.1875 118.007812 99.554688 117.867188 99.925781 117.75 C 100.296875 117.632812 100.675781 117.535156 101.0625 117.464844 C 103.195312 117.105469 105.34375 116.9375 107.507812 116.964844 C 108.769531 116.992188 110.027344 117.089844 111.28125 117.25 C 112.535156 117.410156 113.773438 117.636719 115.003906 117.929688 C 116.234375 118.21875 117.441406 118.574219 118.632812 118.992188 C 119.824219 119.410156 120.992188 119.890625 122.132812 120.433594 C 123.273438 120.972656 124.382812 121.574219 125.460938 122.230469 C 126.539062 122.886719 127.582031 123.601562 128.582031 124.367188 C 129.585938 125.132812 130.546875 125.953125 131.464844 126.820312 C 132.382812 127.6875 133.25 128.601562 134.070312 129.558594 C 134.890625 130.519531 135.660156 131.515625 136.375 132.558594 C 137.09375 133.597656 137.75 134.671875 138.355469 135.78125 C 138.957031 136.886719 139.5 138.027344 139.984375 139.191406 C 140.46875 140.359375 140.886719 141.546875 141.246094 142.757812 C 141.605469 143.964844 141.898438 145.191406 142.128906 146.433594 C 142.355469 147.671875 142.519531 148.921875 142.617188 150.179688 C 142.714844 151.441406 142.75 152.699219 142.714844 153.960938 C 142.679688 155.222656 142.578125 156.480469 142.410156 157.730469 C 141.121094 157.714844 139.835938 157.605469 138.5625 157.402344 C 138.757812 155.949219 138.855469 154.484375 138.855469 153.019531 C 138.859375 152.070312 138.824219 151.121094 138.742188 150.175781 C 138.664062 149.226562 138.542969 148.289062 138.378906 147.351562 C 138.21875 146.417969 138.011719 145.488281 137.765625 144.574219 C 137.523438 143.65625 137.234375 142.75 136.910156 141.859375 C 136.582031 140.96875 136.21875 140.089844 135.8125 139.230469 C 135.410156 138.375 134.96875 137.535156 134.488281 136.714844 C 134.007812 135.894531 133.496094 135.097656 132.945312 134.320312 C 132.394531 133.546875 131.808594 132.800781 131.191406 132.078125 C 130.574219 131.355469 129.929688 130.664062 129.25 129.996094 C 128.570312 129.332031 127.863281 128.699219 127.128906 128.097656 C 126.394531 127.496094 125.632812 126.929688 124.847656 126.394531 C 124.058594 125.859375 123.253906 125.363281 122.421875 124.902344 C 121.589844 124.441406 120.742188 124.015625 119.875 123.628906 C 119.007812 123.242188 118.121094 122.894531 117.222656 122.589844 C 116.324219 122.28125 115.414062 122.011719 114.492188 121.785156 C 113.566406 121.558594 112.636719 121.375 111.695312 121.230469 Z M 98.230469 246.207031 C 98.230469 247.1875 98.183594 248.167969 98.089844 249.152344 C 96.578125 248.796875 95.105469 248.316406 93.671875 247.714844 C 92.238281 247.109375 90.867188 246.394531 89.554688 245.5625 C 88.242188 244.726562 87.011719 243.792969 85.855469 242.753906 C 84.699219 241.714844 83.640625 240.585938 82.675781 239.371094 C 81.710938 238.152344 80.851562 236.863281 80.101562 235.503906 C 79.351562 234.144531 78.722656 232.730469 78.210938 231.265625 C 77.695312 229.800781 77.308594 228.300781 77.050781 226.769531 C 76.789062 225.238281 76.65625 223.699219 76.652344 222.144531 C 76.652344 221.15625 76.699219 220.171875 76.792969 219.199219 C 78.308594 219.554688 79.78125 220.035156 81.210938 220.636719 C 82.644531 221.238281 84.015625 221.957031 85.328125 222.789062 C 86.640625 223.621094 87.871094 224.558594 89.027344 225.597656 C 90.183594 226.636719 91.242188 227.765625 92.207031 228.980469 C 93.175781 230.195312 94.03125 231.484375 94.78125 232.847656 C 95.53125 234.207031 96.160156 235.617188 96.675781 237.085938 C 97.1875 238.550781 97.574219 240.050781 97.835938 241.578125 C 98.09375 243.109375 98.226562 244.652344 98.230469 246.207031 Z M 139.484375 228.109375 C 139.019531 231.027344 138.199219 233.847656 137.023438 236.5625 C 135.847656 239.277344 134.355469 241.804688 132.546875 244.148438 C 132.265625 244.488281 131.984375 244.824219 131.695312 245.152344 C 130.238281 246.851562 128.679688 248.445312 127.011719 249.933594 C 124.9375 251.847656 122.652344 253.464844 120.15625 254.785156 C 120.15625 254.785156 124.507812 248.683594 120.800781 242.242188 L 76.945312 181.285156 C 74.824219 178.351562 73.125 175.191406 71.84375 171.804688 C 73.394531 174.652344 75.265625 177.273438 77.453125 179.667969 C 79.644531 182.0625 82.085938 184.160156 84.785156 185.960938 C 89.664062 189.21875 93.929688 193.140625 97.574219 197.734375 C 98.195312 198.507812 98.746094 199.265625 99.292969 200.003906 L 125.621094 236.558594 C 126.058594 237.171875 126.65625 237.480469 127.410156 237.484375 C 127.410156 237.484375 127.410156 237.484375 127.480469 237.484375 C 127.847656 237.476562 128.1875 237.386719 128.507812 237.207031 C 128.828125 237.027344 129.085938 236.785156 129.285156 236.476562 C 130.207031 235.046875 131.015625 233.550781 131.714844 232 C 132.414062 230.445312 132.992188 228.847656 133.453125 227.207031 C 133.910156 225.566406 134.246094 223.902344 134.457031 222.210938 C 134.664062 220.519531 134.746094 218.824219 134.703125 217.121094 C 134.65625 215.417969 134.484375 213.726562 134.1875 212.050781 C 133.886719 210.371094 133.464844 208.726562 132.917969 207.113281 C 132.375 205.5 131.710938 203.933594 130.929688 202.417969 C 130.152344 200.902344 129.261719 199.457031 128.265625 198.074219 L 124.753906 193.175781 C 126.125 194.128906 127.425781 195.175781 128.648438 196.308594 C 129.871094 197.445312 131.007812 198.664062 132.058594 199.960938 C 133.113281 201.257812 134.066406 202.621094 134.925781 204.054688 C 135.785156 205.484375 136.539062 206.972656 137.1875 208.507812 C 137.835938 210.046875 138.371094 211.625 138.796875 213.238281 C 139.222656 214.851562 139.535156 216.488281 139.730469 218.144531 C 139.921875 219.804688 140 221.464844 139.960938 223.136719 C 139.917969 224.804688 139.761719 226.460938 139.484375 228.109375 Z M 86.402344 174.46875 C 85.621094 173.382812 84.917969 172.25 84.292969 171.070312 C 83.667969 169.886719 83.125 168.667969 82.664062 167.414062 C 82.203125 166.160156 81.828125 164.878906 81.539062 163.574219 C 81.25 162.269531 81.050781 160.949219 80.941406 159.617188 C 80.832031 158.285156 80.8125 156.953125 80.882812 155.617188 C 80.953125 154.285156 81.113281 152.960938 81.363281 151.644531 C 81.613281 150.332031 81.949219 149.042969 82.375 147.773438 C 82.796875 146.507812 83.304688 145.273438 83.898438 144.074219 L 107.050781 176.222656 C 108.070312 177.882812 109.167969 179.484375 110.351562 181.027344 C 110.796875 181.601562 111.265625 182.199219 111.742188 182.734375 L 124.753906 200.679688 C 125.535156 201.769531 126.242188 202.90625 126.867188 204.089844 C 127.496094 205.273438 128.039062 206.492188 128.503906 207.75 C 128.964844 209.007812 129.339844 210.289062 129.628906 211.597656 C 129.917969 212.90625 130.117188 214.230469 130.222656 215.5625 C 130.332031 216.898438 130.351562 218.234375 130.28125 219.570312 C 130.207031 220.910156 130.046875 222.234375 129.796875 223.550781 C 129.542969 224.867188 129.203125 226.160156 128.777344 227.429688 C 128.351562 228.699219 127.839844 229.933594 127.246094 231.136719 L 102.898438 197.394531 Z M 134.117188 193.878906 C 135.761719 196.160156 137.160156 198.589844 138.304688 201.160156 C 136.613281 198.433594 134.621094 195.949219 132.332031 193.703125 C 130.039062 191.457031 127.515625 189.515625 124.753906 187.878906 C 121.144531 185.75 117.964844 183.109375 115.207031 179.953125 L 85.488281 138.625 C 85.273438 138.328125 85.003906 138.097656 84.671875 137.933594 C 84.34375 137.769531 83.996094 137.691406 83.628906 137.703125 C 83.257812 137.707031 82.914062 137.800781 82.589844 137.980469 C 82.269531 138.160156 82.007812 138.40625 81.8125 138.71875 C 80.890625 140.152344 80.078125 141.640625 79.378906 143.195312 C 78.679688 144.746094 78.101562 146.339844 77.640625 147.980469 C 77.179688 149.617188 76.847656 151.28125 76.636719 152.972656 C 76.425781 154.660156 76.339844 156.355469 76.386719 158.054688 C 76.429688 159.757812 76.597656 161.445312 76.894531 163.121094 C 77.191406 164.796875 77.613281 166.441406 78.15625 168.054688 C 78.699219 169.667969 79.359375 171.230469 80.136719 172.746094 C 80.914062 174.261719 81.800781 175.707031 82.796875 177.089844 L 85.792969 181.238281 C 84.488281 180.265625 83.257812 179.210938 82.101562 178.066406 C 80.941406 176.925781 79.867188 175.714844 78.871094 174.425781 C 77.878906 173.136719 76.976562 171.789062 76.167969 170.378906 C 75.359375 168.96875 74.652344 167.511719 74.039062 166.003906 C 73.429688 164.5 72.925781 162.957031 72.523438 161.382812 C 72.125 159.804688 71.832031 158.210938 71.652344 156.597656 C 71.46875 154.980469 71.394531 153.363281 71.433594 151.738281 C 71.472656 150.113281 71.621094 148.496094 71.878906 146.890625 C 72.765625 141.417969 74.824219 136.425781 78.058594 131.917969 C 79.125 130.421875 80.296875 129.011719 81.566406 127.683594 C 81.941406 127.320312 82.316406 126.984375 82.738281 126.632812 C 85.167969 124.195312 87.898438 122.160156 90.929688 120.53125 C 90.929688 120.53125 86.492188 126.773438 90.425781 133.285156 Z M 115.148438 130.046875 C 115.152344 128.90625 115.234375 127.773438 115.394531 126.644531 C 116.777344 127.09375 118.113281 127.648438 119.40625 128.3125 C 120.699219 128.972656 121.933594 129.730469 123.109375 130.589844 C 124.28125 131.445312 125.378906 132.386719 126.402344 133.417969 C 127.429688 134.445312 128.367188 135.550781 129.214844 136.730469 C 130.066406 137.90625 130.816406 139.144531 131.46875 140.441406 C 132.125 141.738281 132.671875 143.078125 133.113281 144.460938 C 133.554688 145.84375 133.886719 147.253906 134.105469 148.6875 C 134.324219 150.121094 134.429688 151.566406 134.417969 153.019531 C 134.421875 154.128906 134.359375 155.234375 134.234375 156.339844 C 132.855469 155.886719 131.523438 155.328125 130.230469 154.667969 C 128.941406 154.007812 127.710938 153.25 126.539062 152.394531 C 125.367188 151.539062 124.269531 150.601562 123.246094 149.574219 C 122.222656 148.546875 121.285156 147.449219 120.433594 146.277344 C 119.582031 145.101562 118.828125 143.871094 118.171875 142.578125 C 117.511719 141.289062 116.960938 139.953125 116.511719 138.578125 C 116.0625 137.199219 115.722656 135.796875 115.496094 134.363281 C 115.265625 132.933594 115.152344 131.496094 115.148438 130.046875 Z M 115.148438 130.046875 " fill-opacity="1" fill-rule="nonzero"/></g><g fill="#072a4f" fill-opacity="1"><g transform="translate(141.739757, 186.614445)"><g><path d="M 12.8125 0.703125 C 10.59375 0.703125 8.632812 0.171875 6.9375 -0.890625 C 5.25 -1.953125 3.941406 -3.359375 3.015625 -5.109375 C 2.097656 -6.859375 1.640625 -8.738281 1.640625 -10.75 C 1.640625 -13.195312 2.191406 -15.328125 3.296875 -17.140625 C 4.410156 -18.960938 5.832031 -20.359375 7.5625 -21.328125 C 9.289062 -22.296875 11.039062 -22.78125 12.8125 -22.78125 C 15.050781 -22.78125 17.023438 -22.25 18.734375 -21.1875 C 20.453125 -20.125 21.769531 -18.722656 22.6875 -16.984375 C 23.613281 -15.253906 24.078125 -13.382812 24.078125 -11.375 C 24.078125 -8.925781 23.515625 -6.785156 22.390625 -4.953125 C 21.273438 -3.117188 19.84375 -1.71875 18.09375 -0.75 C 16.34375 0.21875 14.582031 0.703125 12.8125 0.703125 Z M 12.78125 -0.84375 C 14.363281 -0.84375 15.6875 -1.3125 16.75 -2.25 C 17.8125 -3.195312 18.601562 -4.46875 19.125 -6.0625 C 19.65625 -7.664062 19.921875 -9.4375 19.921875 -11.375 C 19.921875 -13.164062 19.648438 -14.8125 19.109375 -16.3125 C 18.578125 -17.820312 17.769531 -19.023438 16.6875 -19.921875 C 15.613281 -20.828125 14.3125 -21.28125 12.78125 -21.28125 C 10.445312 -21.28125 8.6875 -20.289062 7.5 -18.3125 C 6.320312 -16.34375 5.734375 -13.851562 5.734375 -10.84375 C 5.734375 -9.03125 5.992188 -7.363281 6.515625 -5.84375 C 7.046875 -4.320312 7.835938 -3.109375 8.890625 -2.203125 C 9.941406 -1.296875 11.238281 -0.84375 12.78125 -0.84375 Z M 12.78125 -0.84375 "/></g></g></g><g fill="#072a4f" fill-opacity="1"><g transform="translate(168.508939, 186.614445)"><g><path d="M 2.09375 0.109375 C 1.90625 0.109375 1.757812 0.0351562 1.65625 -0.109375 C 1.550781 -0.265625 1.5 -0.453125 1.5 -0.671875 C 1.53125 -1.015625 1.601562 -1.222656 1.71875 -1.296875 C 1.832031 -1.367188 2.050781 -1.40625 2.375 -1.40625 C 3.050781 -1.40625 3.550781 -1.523438 3.875 -1.765625 C 4.207031 -2.015625 4.414062 -2.316406 4.5 -2.671875 C 4.582031 -3.035156 4.632812 -3.507812 4.65625 -4.09375 L 4.65625 -17.984375 C 4.632812 -18.566406 4.582031 -19.039062 4.5 -19.40625 C 4.414062 -19.769531 4.207031 -20.070312 3.875 -20.3125 C 3.550781 -20.5625 3.050781 -20.6875 2.375 -20.6875 L 2.171875 -20.6875 C 1.929688 -20.6875 1.765625 -20.726562 1.671875 -20.8125 C 1.585938 -20.894531 1.53125 -21.097656 1.5 -21.421875 C 1.5 -21.628906 1.550781 -21.804688 1.65625 -21.953125 C 1.757812 -22.109375 1.90625 -22.1875 2.09375 -22.1875 C 3.632812 -22.113281 5.023438 -22.078125 6.265625 -22.078125 C 7.660156 -22.078125 9.117188 -22.113281 10.640625 -22.1875 C 10.847656 -22.1875 11.003906 -22.109375 11.109375 -21.953125 C 11.210938 -21.804688 11.265625 -21.628906 11.265625 -21.421875 C 11.242188 -21.066406 11.164062 -20.851562 11.03125 -20.78125 C 10.90625 -20.71875 10.691406 -20.6875 10.390625 -20.6875 C 9.710938 -20.6875 9.210938 -20.5625 8.890625 -20.3125 C 8.566406 -20.070312 8.363281 -19.769531 8.28125 -19.40625 C 8.195312 -19.039062 8.144531 -18.566406 8.125 -17.984375 L 8.125 -3.5625 C 8.164062 -3.070312 8.222656 -2.691406 8.296875 -2.421875 C 8.367188 -2.160156 8.578125 -1.914062 8.921875 -1.6875 C 9.273438 -1.46875 9.820312 -1.375 10.5625 -1.40625 L 13.71875 -1.40625 C 14.53125 -1.425781 15.144531 -1.554688 15.5625 -1.796875 C 15.988281 -2.046875 16.320312 -2.425781 16.5625 -2.9375 C 16.8125 -3.445312 17.113281 -4.285156 17.46875 -5.453125 C 17.625 -5.878906 18.019531 -6.046875 18.65625 -5.953125 C 18.863281 -5.898438 19.0625 -5.800781 19.25 -5.65625 C 19.4375 -5.519531 19.519531 -5.347656 19.5 -5.140625 L 18.796875 -0.734375 C 18.722656 -0.429688 18.613281 -0.234375 18.46875 -0.140625 C 18.332031 -0.046875 18.101562 0 17.78125 0 L 6.296875 0 C 5.035156 0 3.632812 0.0351562 2.09375 0.109375 Z M 2.09375 0.109375 "/></g></g></g><g fill="#072a4f" fill-opacity="1"><g transform="translate(189.539424, 186.614445)"><g><path d="M 6.265625 0.109375 C 6.054688 0.109375 5.898438 0.0351562 5.796875 -0.109375 C 5.691406 -0.265625 5.640625 -0.453125 5.640625 -0.671875 C 5.660156 -1.015625 5.726562 -1.222656 5.84375 -1.296875 C 5.957031 -1.367188 6.179688 -1.40625 6.515625 -1.40625 C 7.191406 -1.40625 7.691406 -1.523438 8.015625 -1.765625 C 8.335938 -2.015625 8.539062 -2.316406 8.625 -2.671875 C 8.707031 -3.035156 8.757812 -3.507812 8.78125 -4.09375 L 8.78125 -20.796875 L 6.375 -20.796875 C 5.582031 -20.765625 4.96875 -20.59375 4.53125 -20.28125 C 4.101562 -19.96875 3.773438 -19.5 3.546875 -18.875 C 3.328125 -18.257812 3.132812 -17.378906 2.96875 -16.234375 C 2.945312 -16.046875 2.804688 -15.894531 2.546875 -15.78125 C 2.296875 -15.664062 2.03125 -15.609375 1.75 -15.609375 C 1.539062 -15.609375 1.347656 -15.671875 1.171875 -15.796875 C 0.992188 -15.929688 0.90625 -16.101562 0.90625 -16.3125 L 1.015625 -21.25 C 1.015625 -21.800781 1.328125 -22.078125 1.953125 -22.078125 L 19.078125 -22.078125 C 19.679688 -22.078125 19.984375 -21.800781 19.984375 -21.25 L 20.125 -16.3125 C 20.125 -16.101562 20.03125 -15.929688 19.84375 -15.796875 C 19.65625 -15.671875 19.457031 -15.609375 19.25 -15.609375 C 18.96875 -15.609375 18.703125 -15.664062 18.453125 -15.78125 C 18.210938 -15.894531 18.082031 -16.046875 18.0625 -16.234375 C 17.875 -17.398438 17.675781 -18.285156 17.46875 -18.890625 C 17.257812 -19.503906 16.929688 -19.96875 16.484375 -20.28125 C 16.035156 -20.59375 15.414062 -20.765625 14.625 -20.796875 L 12.25 -20.796875 L 12.25 -4.09375 C 12.269531 -3.507812 12.320312 -3.035156 12.40625 -2.671875 C 12.488281 -2.316406 12.691406 -2.015625 13.015625 -1.765625 C 13.347656 -1.523438 13.851562 -1.40625 14.53125 -1.40625 L 14.734375 -1.40625 C 14.941406 -1.40625 15.097656 -1.363281 15.203125 -1.28125 C 15.304688 -1.195312 15.375 -0.992188 15.40625 -0.671875 C 15.40625 -0.453125 15.347656 -0.265625 15.234375 -0.109375 C 15.128906 0.0351562 14.972656 0.109375 14.765625 0.109375 C 13.273438 0.0351562 11.898438 0 10.640625 0 C 9.242188 0 7.785156 0.0351562 6.265625 0.109375 Z M 6.265625 0.109375 "/></g></g></g><g fill="#072a4f" fill-opacity="1"><g transform="translate(211.584681, 186.614445)"><g><path d="M 2.09375 0.109375 C 1.90625 0.109375 1.757812 0.0351562 1.65625 -0.109375 C 1.550781 -0.265625 1.5 -0.453125 1.5 -0.671875 C 1.53125 -1.015625 1.601562 -1.222656 1.71875 -1.296875 C 1.832031 -1.367188 2.050781 -1.40625 2.375 -1.40625 C 3.050781 -1.40625 3.550781 -1.523438 3.875 -1.765625 C 4.207031 -2.015625 4.414062 -2.316406 4.5 -2.671875 C 4.582031 -3.035156 4.632812 -3.507812 4.65625 -4.09375 L 4.65625 -17.984375 C 4.632812 -18.566406 4.582031 -19.039062 4.5 -19.40625 C 4.414062 -19.769531 4.207031 -20.070312 3.875 -20.3125 C 3.550781 -20.5625 3.050781 -20.6875 2.375 -20.6875 L 2.171875 -20.6875 C 1.929688 -20.6875 1.765625 -20.726562 1.671875 -20.8125 C 1.585938 -20.894531 1.53125 -21.097656 1.5 -21.421875 C 1.5 -21.628906 1.550781 -21.804688 1.65625 -21.953125 C 1.757812 -22.109375 1.90625 -22.1875 2.09375 -22.1875 C 3.632812 -22.113281 5.023438 -22.078125 6.265625 -22.078125 L 17.25 -22.078125 C 17.863281 -22.078125 18.171875 -21.800781 18.171875 -21.25 L 18.265625 -16.34375 C 18.265625 -16.132812 18.160156 -15.960938 17.953125 -15.828125 C 17.742188 -15.703125 17.535156 -15.640625 17.328125 -15.640625 C 17.046875 -15.640625 16.800781 -15.691406 16.59375 -15.796875 C 16.382812 -15.898438 16.265625 -16.0625 16.234375 -16.28125 C 16.046875 -17.414062 15.84375 -18.28125 15.625 -18.875 C 15.40625 -19.476562 15.078125 -19.925781 14.640625 -20.21875 C 14.210938 -20.507812 13.601562 -20.664062 12.8125 -20.6875 L 8.125 -20.6875 L 8.125 -11.796875 L 14.453125 -11.796875 C 14.617188 -11.773438 14.75 -11.6875 14.84375 -11.53125 C 14.9375 -11.382812 14.984375 -11.203125 14.984375 -10.984375 C 14.984375 -10.796875 14.9375 -10.632812 14.84375 -10.5 C 14.75 -10.363281 14.617188 -10.296875 14.453125 -10.296875 L 8.125 -10.296875 L 8.125 -3.671875 C 8.164062 -3.179688 8.222656 -2.789062 8.296875 -2.5 C 8.367188 -2.207031 8.578125 -1.941406 8.921875 -1.703125 C 9.273438 -1.472656 9.820312 -1.375 10.5625 -1.40625 L 13.796875 -1.40625 C 14.609375 -1.425781 15.222656 -1.554688 15.640625 -1.796875 C 16.066406 -2.046875 16.398438 -2.425781 16.640625 -2.9375 C 16.890625 -3.445312 17.1875 -4.285156 17.53125 -5.453125 C 17.695312 -5.878906 18.09375 -6.046875 18.71875 -5.953125 C 18.957031 -5.898438 19.160156 -5.800781 19.328125 -5.65625 C 19.503906 -5.519531 19.582031 -5.347656 19.5625 -5.140625 L 18.859375 -0.734375 C 18.796875 -0.429688 18.691406 -0.234375 18.546875 -0.140625 C 18.410156 -0.046875 18.175781 0 17.84375 0 L 6.296875 0 C 5.035156 0 3.632812 0.0351562 2.09375 0.109375 Z M 2.09375 0.109375 "/></g></g></g><g fill="#072a4f" fill-opacity="1"><g transform="translate(233.419983, 186.614445)"><g><path d="M 2.140625 0.109375 C 1.921875 0.109375 1.757812 0.0351562 1.65625 -0.109375 C 1.550781 -0.265625 1.5 -0.453125 1.5 -0.671875 C 1.53125 -1.015625 1.601562 -1.222656 1.71875 -1.296875 C 1.832031 -1.367188 2.050781 -1.40625 2.375 -1.40625 C 3.050781 -1.40625 3.550781 -1.523438 3.875 -1.765625 C 4.207031 -2.015625 4.414062 -2.316406 4.5 -2.671875 C 4.582031 -3.035156 4.632812 -3.507812 4.65625 -4.09375 L 4.65625 -17.953125 C 4.632812 -18.554688 4.582031 -19.035156 4.5 -19.390625 C 4.414062 -19.742188 4.207031 -20.046875 3.875 -20.296875 C 3.550781 -20.554688 3.050781 -20.6875 2.375 -20.6875 L 2.171875 -20.6875 C 1.929688 -20.6875 1.765625 -20.726562 1.671875 -20.8125 C 1.585938 -20.894531 1.53125 -21.097656 1.5 -21.421875 C 1.5 -21.628906 1.550781 -21.804688 1.65625 -21.953125 C 1.757812 -22.109375 1.921875 -22.1875 2.140625 -22.1875 C 3.648438 -22.113281 5.035156 -22.078125 6.296875 -22.078125 L 12.3125 -22.078125 C 14.113281 -22.054688 15.613281 -21.769531 16.8125 -21.21875 C 18.019531 -20.675781 18.898438 -19.976562 19.453125 -19.125 C 20.015625 -18.269531 20.296875 -17.351562 20.296875 -16.375 C 20.296875 -15.09375 19.785156 -13.914062 18.765625 -12.84375 C 17.753906 -11.769531 16.375 -11 14.625 -10.53125 L 15.21875 -9.59375 C 16.195312 -8 17.082031 -6.632812 17.875 -5.5 C 18.675781 -4.375 19.539062 -3.320312 20.46875 -2.34375 C 21.125 -1.8125 21.828125 -1.5 22.578125 -1.40625 C 22.617188 -1.40625 22.722656 -1.394531 22.890625 -1.375 C 23.054688 -1.363281 23.191406 -1.300781 23.296875 -1.1875 C 23.398438 -1.070312 23.453125 -0.898438 23.453125 -0.671875 C 23.453125 -0.453125 23.398438 -0.265625 23.296875 -0.109375 C 23.191406 0.0351562 23.03125 0.109375 22.8125 0.109375 L 21.90625 0.0625 C 20.882812 0.0195312 20.140625 0 19.671875 0 C 18.734375 -0.1875 17.929688 -0.519531 17.265625 -1 C 16.609375 -1.476562 15.953125 -2.160156 15.296875 -3.046875 C 14.617188 -3.929688 13.671875 -5.378906 12.453125 -7.390625 L 11.828125 -8.40625 C 11.484375 -8.9375 11.144531 -9.300781 10.8125 -9.5 C 10.488281 -9.695312 9.929688 -9.796875 9.140625 -9.796875 L 8.125 -9.796875 L 8.125 -4.09375 C 8.144531 -3.507812 8.195312 -3.035156 8.28125 -2.671875 C 8.363281 -2.316406 8.566406 -2.015625 8.890625 -1.765625 C 9.210938 -1.523438 9.710938 -1.40625 10.390625 -1.40625 L 10.609375 -1.40625 C 10.816406 -1.40625 10.972656 -1.363281 11.078125 -1.28125 C 11.179688 -1.195312 11.242188 -0.992188 11.265625 -0.671875 C 11.265625 -0.453125 11.210938 -0.265625 11.109375 -0.109375 C 11.003906 0.0351562 10.847656 0.109375 10.640625 0.109375 C 9.148438 0.0351562 7.691406 0 6.265625 0 C 5.023438 0 3.648438 0.0351562 2.140625 0.109375 Z M 11.203125 -11.171875 C 14.679688 -11.171875 16.421875 -12.800781 16.421875 -16.0625 C 16.421875 -17.394531 15.960938 -18.515625 15.046875 -19.421875 C 14.140625 -20.335938 12.644531 -20.796875 10.5625 -20.796875 C 9.894531 -20.796875 9.382812 -20.710938 9.03125 -20.546875 C 8.675781 -20.378906 8.4375 -20.097656 8.3125 -19.703125 C 8.1875 -19.304688 8.125 -18.703125 8.125 -17.890625 L 8.125 -11.171875 Z M 11.203125 -11.171875 "/></g></g></g><g fill="#072a4f" fill-opacity="1"><g transform="translate(257.949672, 186.614445)"><g><path d="M 2.140625 0.109375 C 1.921875 0.109375 1.757812 0.0351562 1.65625 -0.109375 C 1.550781 -0.265625 1.5 -0.453125 1.5 -0.671875 C 1.53125 -1.015625 1.601562 -1.222656 1.71875 -1.296875 C 1.832031 -1.367188 2.050781 -1.40625 2.375 -1.40625 C 3.050781 -1.40625 3.550781 -1.523438 3.875 -1.765625 C 4.207031 -2.015625 4.414062 -2.316406 4.5 -2.671875 C 4.582031 -3.035156 4.632812 -3.507812 4.65625 -4.09375 L 4.65625 -17.953125 C 4.632812 -18.554688 4.582031 -19.035156 4.5 -19.390625 C 4.414062 -19.742188 4.207031 -20.046875 3.875 -20.296875 C 3.550781 -20.554688 3.050781 -20.6875 2.375 -20.6875 L 2.171875 -20.6875 C 1.929688 -20.6875 1.765625 -20.726562 1.671875 -20.8125 C 1.585938 -20.894531 1.53125 -21.097656 1.5 -21.421875 C 1.5 -21.628906 1.550781 -21.804688 1.65625 -21.953125 C 1.757812 -22.109375 1.921875 -22.1875 2.140625 -22.1875 C 3.648438 -22.113281 5.035156 -22.078125 6.296875 -22.078125 L 12.3125 -22.078125 C 14.113281 -22.054688 15.613281 -21.769531 16.8125 -21.21875 C 18.019531 -20.675781 18.898438 -19.976562 19.453125 -19.125 C 20.015625 -18.269531 20.296875 -17.351562 20.296875 -16.375 C 20.296875 -15.09375 19.785156 -13.914062 18.765625 -12.84375 C 17.753906 -11.769531 16.375 -11 14.625 -10.53125 L 15.21875 -9.59375 C 16.195312 -8 17.082031 -6.632812 17.875 -5.5 C 18.675781 -4.375 19.539062 -3.320312 20.46875 -2.34375 C 21.125 -1.8125 21.828125 -1.5 22.578125 -1.40625 C 22.617188 -1.40625 22.722656 -1.394531 22.890625 -1.375 C 23.054688 -1.363281 23.191406 -1.300781 23.296875 -1.1875 C 23.398438 -1.070312 23.453125 -0.898438 23.453125 -0.671875 C 23.453125 -0.453125 23.398438 -0.265625 23.296875 -0.109375 C 23.191406 0.0351562 23.03125 0.109375 22.8125 0.109375 L 21.90625 0.0625 C 20.882812 0.0195312 20.140625 0 19.671875 0 C 18.734375 -0.1875 17.929688 -0.519531 17.265625 -1 C 16.609375 -1.476562 15.953125 -2.160156 15.296875 -3.046875 C 14.617188 -3.929688 13.671875 -5.378906 12.453125 -7.390625 L 11.828125 -8.40625 C 11.484375 -8.9375 11.144531 -9.300781 10.8125 -9.5 C 10.488281 -9.695312 9.929688 -9.796875 9.140625 -9.796875 L 8.125 -9.796875 L 8.125 -4.09375 C 8.144531 -3.507812 8.195312 -3.035156 8.28125 -2.671875 C 8.363281 -2.316406 8.566406 -2.015625 8.890625 -1.765625 C 9.210938 -1.523438 9.710938 -1.40625 10.390625 -1.40625 L 10.609375 -1.40625 C 10.816406 -1.40625 10.972656 -1.363281 11.078125 -1.28125 C 11.179688 -1.195312 11.242188 -0.992188 11.265625 -0.671875 C 11.265625 -0.453125 11.210938 -0.265625 11.109375 -0.109375 C 11.003906 0.0351562 10.847656 0.109375 10.640625 0.109375 C 9.148438 0.0351562 7.691406 0 6.265625 0 C 5.023438 0 3.648438 0.0351562 2.140625 0.109375 Z M 11.203125 -11.171875 C 14.679688 -11.171875 16.421875 -12.800781 16.421875 -16.0625 C 16.421875 -17.394531 15.960938 -18.515625 15.046875 -19.421875 C 14.140625 -20.335938 12.644531 -20.796875 10.5625 -20.796875 C 9.894531 -20.796875 9.382812 -20.710938 9.03125 -20.546875 C 8.675781 -20.378906 8.4375 -20.097656 8.3125 -19.703125 C 8.1875 -19.304688 8.125 -18.703125 8.125 -17.890625 L 8.125 -11.171875 Z M 11.203125 -11.171875 "/></g></g></g><g fill="#072a4f" fill-opacity="1"><g transform="translate(282.47936, 186.614445)"><g><path d="M 0.203125 0.109375 C -0.00390625 0.109375 -0.160156 0.0351562 -0.265625 -0.109375 C -0.367188 -0.265625 -0.421875 -0.453125 -0.421875 -0.671875 C -0.398438 -1.015625 -0.328125 -1.222656 -0.203125 -1.296875 C -0.0859375 -1.367188 0.046875 -1.40625 0.203125 -1.40625 C 0.367188 -1.40625 0.476562 -1.40625 0.53125 -1.40625 C 1.226562 -1.40625 1.738281 -1.582031 2.0625 -1.9375 C 2.394531 -2.300781 2.660156 -2.707031 2.859375 -3.15625 C 3.054688 -3.613281 3.1875 -3.925781 3.25 -4.09375 L 9.375 -18.578125 C 9.519531 -18.929688 9.59375 -19.210938 9.59375 -19.421875 C 9.59375 -19.847656 9.425781 -20.148438 9.09375 -20.328125 C 8.769531 -20.515625 8.316406 -20.671875 7.734375 -20.796875 C 7.335938 -20.859375 7.09375 -20.925781 7 -21 C 6.90625 -21.070312 6.859375 -21.269531 6.859375 -21.59375 C 6.859375 -21.875 6.929688 -22.0625 7.078125 -22.15625 C 7.234375 -22.25 7.476562 -22.296875 7.8125 -22.296875 C 8.976562 -22.296875 9.90625 -22.207031 10.59375 -22.03125 C 11.28125 -21.851562 11.878906 -21.5 12.390625 -20.96875 C 12.898438 -20.445312 13.378906 -19.648438 13.828125 -18.578125 L 19.703125 -4.09375 C 20.054688 -3.207031 20.394531 -2.539062 20.71875 -2.09375 C 21.039062 -1.65625 21.53125 -1.425781 22.1875 -1.40625 L 22.40625 -1.40625 C 22.632812 -1.40625 22.796875 -1.363281 22.890625 -1.28125 C 22.984375 -1.195312 23.039062 -0.992188 23.0625 -0.671875 C 23.0625 -0.453125 23.007812 -0.265625 22.90625 -0.109375 C 22.800781 0.0351562 22.644531 0.109375 22.4375 0.109375 C 20.9375 0.0351562 19.648438 0 18.578125 0 C 17.179688 0 15.738281 0.0351562 14.25 0.109375 C 14.039062 0.109375 13.878906 0.0351562 13.765625 -0.109375 C 13.660156 -0.265625 13.609375 -0.453125 13.609375 -0.671875 C 13.640625 -0.992188 13.703125 -1.195312 13.796875 -1.28125 C 13.890625 -1.363281 14.050781 -1.40625 14.28125 -1.40625 C 15.070312 -1.40625 15.628906 -1.476562 15.953125 -1.625 C 16.285156 -1.78125 16.453125 -2.054688 16.453125 -2.453125 C 16.453125 -2.753906 16.3125 -3.300781 16.03125 -4.09375 L 14.84375 -7 L 6.1875 -7 C 5.601562 -5.550781 5.269531 -4.707031 5.1875 -4.46875 C 5.113281 -4.238281 5.078125 -4.113281 5.078125 -4.09375 C 4.796875 -3.207031 4.65625 -2.632812 4.65625 -2.375 C 4.65625 -1.976562 4.828125 -1.71875 5.171875 -1.59375 C 5.523438 -1.46875 6.191406 -1.40625 7.171875 -1.40625 L 7.390625 -1.40625 C 7.617188 -1.40625 7.78125 -1.363281 7.875 -1.28125 C 7.96875 -1.195312 8.023438 -0.992188 8.046875 -0.671875 C 8.046875 -0.453125 7.992188 -0.265625 7.890625 -0.109375 C 7.785156 0.0351562 7.628906 0.109375 7.421875 0.109375 C 5.929688 0.0351562 4.660156 0 3.609375 0 C 2.859375 0 1.722656 0.0351562 0.203125 0.109375 Z M 6.859375 -8.5 L 14.203125 -8.5 L 10.671875 -17.5 L 10.5625 -17.5 Z M 6.859375 -8.5 "/></g></g></g></svg>